<?xml version="1.0" encoding="utf-8"?>
<!-- Generator: Adobe Illustrator 23.0.6, SVG Export Plug-In . SVG Version: 6.00 Build 0)  -->
<svg version="1.1" id="Capa_1" xmlns="http://www.w3.org/2000/svg" xmlns:xlink="http://www.w3.org/1999/xlink" x="0px" y="0px"
	 viewBox="0 0 35 35" style="enable-background:new 0 0 35 35;" xml:space="preserve">
<style type="text/css">
	.st0{fill:#666666;}
</style>
<path class="st0" d="M17.5,0.5c-9.4,0-17,7.6-17,17c0,9.4,7.6,17,17,17s17-7.6,17-17C34.5,8.1,26.9,0.5,17.5,0.5z M13.2,26H9.4V14
	h3.7V26z M11.3,12.5c-1.2,0-2.2-1-2.2-2.2c0-1.2,1-2.2,2.2-2.2c1.2,0,2.2,1,2.2,2.2C13.5,11.5,12.5,12.5,11.3,12.5z M27.1,26h-3.7
	c0,0,0-4.6,0-6.3c0-1.7-0.7-2.7-2-2.7c-1.5,0-2.3,1-2.3,2.7c0,1.8,0,6.3,0,6.3h-3.6V14h3.6v1.6c0,0,1.1-2,3.6-2
	c2.5,0,4.4,1.6,4.4,4.8C27.1,21.6,27.1,26,27.1,26z"/>
</svg>
