<?xml version="1.0" encoding="utf-8"?>
<!-- Generator: Adobe Illustrator 23.0.6, SVG Export Plug-In . SVG Version: 6.00 Build 0)  -->
<svg version="1.1" id="Capa_1" xmlns="http://www.w3.org/2000/svg" xmlns:xlink="http://www.w3.org/1999/xlink" x="0px" y="0px"
	 viewBox="0 0 35 35" style="enable-background:new 0 0 35 35;" xml:space="preserve">
<style type="text/css">
	.st0{fill:#666666;}
</style>
<path class="st0" d="M34.5,17.5c0,9.4-7.6,17-17,17c-9.4,0-17-7.6-17-17c0-9.4,7.6-17,17-17C26.9,0.5,34.5,8.1,34.5,17.5z M5.3,16.3
	c0-0.1-0.1-0.1-0.1-0.1c-0.1,0-0.1,0-0.1,0.1l-0.3,2.4l0.3,2.4c0,0.1,0.1,0.1,0.1,0.1c0.1,0,0.1,0,0.1-0.1l0.3-2.4L5.3,16.3z
	 M9.5,14c-0.1,0-0.2,0.1-0.2,0.2l-0.2,4.5l0.2,2.9c0,0.1,0.1,0.2,0.2,0.2c0.1,0,0.2-0.1,0.2-0.2v0l0.2-2.9l-0.2-4.5
	C9.7,14.1,9.6,14,9.5,14z M7.3,15.6c-0.1,0-0.2,0.1-0.2,0.2l-0.2,3l0.2,2.9c0,0.1,0.1,0.2,0.2,0.2c0.1,0,0.2-0.1,0.2-0.2l0.3-2.9
	l-0.3-3C7.4,15.6,7.4,15.6,7.3,15.6z M11.7,21.8c0.1,0,0.2-0.1,0.3-0.2l0.2-2.8l-0.2-6c0-0.1-0.1-0.2-0.3-0.2
	c-0.1,0-0.2,0.1-0.3,0.2l-0.2,6l0.2,2.8C11.4,21.7,11.5,21.8,11.7,21.8z M16.2,21.8c0.2,0,0.3-0.2,0.3-0.3v0v0l0.1-2.8l-0.1-6.9
	c0-0.2-0.2-0.3-0.3-0.3c-0.2,0-0.3,0.2-0.3,0.3l-0.1,6.9c0,0,0.1,2.8,0.1,2.8C15.8,21.6,16,21.8,16.2,21.8z M13.9,21.8
	c0.2,0,0.3-0.1,0.3-0.3v0l0.2-2.8l-0.2-6c0-0.2-0.1-0.3-0.3-0.3c-0.2,0-0.3,0.1-0.3,0.3l-0.2,6l0.2,2.8
	C13.6,21.7,13.7,21.8,13.9,21.8z M27.6,15.2c-0.5,0-0.9,0.1-1.3,0.3c-0.3-3-2.8-5.4-5.8-5.4c-0.8,0-1.5,0.1-2.1,0.4
	c-0.3,0.1-0.3,0.2-0.3,0.4v10.6c0,0.2,0.2,0.4,0.4,0.4c0,0,9.2,0,9.2,0c1.8,0,3.3-1.5,3.3-3.3C30.9,16.6,29.4,15.2,27.6,15.2z"/>
</svg>
