<?xml version="1.0" encoding="utf-8"?>
<!-- Generator: Adobe Illustrator 23.0.6, SVG Export Plug-In . SVG Version: 6.00 Build 0)  -->
<svg version="1.1" id="Capa_1" xmlns="http://www.w3.org/2000/svg" xmlns:xlink="http://www.w3.org/1999/xlink" x="0px" y="0px"
	 viewBox="0 0 35 35" style="enable-background:new 0 0 35 35;" xml:space="preserve">
<style type="text/css">
	.st0{fill:#666666;}
</style>
<path class="st0" d="M34.5,17.5c0,9.4-7.6,17-17,17c-9.4,0-17-7.6-17-17c0-9.4,7.6-17,17-17C26.9,0.5,34.5,8.1,34.5,17.5z
	 M14.8,28.7h4.4V17.8h3l0.3-3.7h-3.4c0,0,0-1.4,0-2.1c0-0.9,0.2-1.2,1-1.2c0.7,0,2.4,0,2.4,0V7c0,0-2.5,0-3,0
	c-3.2,0-4.7,1.4-4.7,4.2c0,2.4,0,2.9,0,2.9h-2.3v3.7h2.3V28.7z"/>
</svg>
