<?xml version="1.0" encoding="utf-8"?>
<!-- Generator: Adobe Illustrator 23.0.6, SVG Export Plug-In . SVG Version: 6.00 Build 0)  -->
<svg version="1.1" id="Capa_1" xmlns="http://www.w3.org/2000/svg" xmlns:xlink="http://www.w3.org/1999/xlink" x="0px" y="0px"
	 viewBox="0 0 35 35" style="enable-background:new 0 0 35 35;" xml:space="preserve">
<style type="text/css">
	.st0{fill:#666666;}
</style>
<path class="st0" d="M34.5,17.5c0,9.4-7.6,17-17,17c-9.4,0-17-7.6-17-17c0-9.4,7.6-17,17-17C26.9,0.5,34.5,8.1,34.5,17.5z M9.2,24.3
	c1.7,1.1,3.8,1.8,6,1.8c7.3,0,11.4-6.1,11.1-11.7c0.8-0.6,1.4-1.2,2-2c-0.7,0.3-1.5,0.5-2.3,0.6c0.8-0.5,1.4-1.3,1.7-2.2
	c-0.8,0.4-1.6,0.8-2.5,1c-0.7-0.8-1.7-1.2-2.9-1.2c-2.5,0-4.4,2.4-3.8,4.8c-3.3-0.2-6.1-1.7-8.1-4.1c-1,1.8-0.5,4.1,1.2,5.2
	c-0.6,0-1.2-0.2-1.8-0.5c0,1.8,1.3,3.5,3.1,3.9c-0.6,0.2-1.2,0.2-1.8,0.1c0.5,1.6,1.9,2.7,3.7,2.7C13.4,24,11.3,24.6,9.2,24.3z"/>
</svg>
