<?xml version="1.0" encoding="utf-8"?>
<!-- Generator: Adobe Illustrator 23.0.6, SVG Export Plug-In . SVG Version: 6.00 Build 0)  -->
<svg version="1.1" id="Capa_1" xmlns="http://www.w3.org/2000/svg" xmlns:xlink="http://www.w3.org/1999/xlink" x="0px" y="0px"
	 viewBox="0 0 35 35" style="enable-background:new 0 0 35 35;" xml:space="preserve">
<style type="text/css">
	.st0{fill:#666666;}
</style>
<path class="st0" d="M34.5,17.5c0,9.4-7.6,17-17,17c-9.4,0-17-7.6-17-17c0-9.4,7.6-17,17-17C26.9,0.5,34.5,8.1,34.5,17.5z
	 M26.8,15.5c0-2.3-0.7-4.2-3-4.2H11.7c-2.3,0-3.3,1.9-3.3,4.2v4.4c0,2.3,1,4.2,3.4,4.2h11.9c2.3,0,3.1-1.9,3.1-4.2V15.5z M15.8,20.4
	l5-2.6l-5-2.6V20.4z"/>
</svg>
