<?xml version="1.0" encoding="UTF-8"?>
<svg id="Capa_2" data-name="Capa 2" xmlns="http://www.w3.org/2000/svg" viewBox="0 0 962.4 1097.6">
  <defs>
    <style>
      .cls-1 {
        fill: #a2659f;
      }

      .cls-1, .cls-2, .cls-3, .cls-4, .cls-5, .cls-6, .cls-7, .cls-8, .cls-9, .cls-10, .cls-11, .cls-12 {
        stroke-width: 0px;
      }

      .cls-2 {
        fill: #f39b09;
      }

      .cls-3 {
        fill: #239ad2;
      }

      .cls-4 {
        fill: #a8211c;
      }

      .cls-5 {
        fill: #e0740b;
      }

      .cls-6 {
        fill: #004e80;
      }

      .cls-7 {
        fill: #fff;
      }

      .cls-8 {
        fill: #8a933b;
      }

      .cls-9 {
        fill: #653587;
      }

      .cls-10 {
        fill: #e0007e;
      }

      .cls-11 {
        fill: #43a02b;
      }

      .cls-13 {
        opacity: .25;
      }

      .cls-12 {
        fill: #e6bc01;
      }
    </style>
  </defs>
  <g id="Capa_1-2" data-name="Capa 1">
    <g>
      <g class="cls-13">
        <path class="cls-7" d="m8.1,16.2c4.5,0,8.1-3.6,8.1-8.1S12.6,0,8.1,0,0,3.6,0,8.1c0,4.5,3.6,8.1,8.1,8.1"/>
        <path class="cls-7" d="m8.1,43.3c4.5,0,8.1-3.6,8.1-8.1s-3.6-8.1-8.1-8.1S0,30.7,0,35.2c0,4.4,3.6,8.1,8.1,8.1"/>
        <path class="cls-7" d="m8.1,70.3c4.5,0,8.1-3.6,8.1-8.1s-3.6-8.1-8.1-8.1S0,57.7,0,62.2c0,4.5,3.6,8.1,8.1,8.1"/>
        <path class="cls-7" d="m35.1,16.2c4.5,0,8.1-3.6,8.1-8.1S39.6,0,35.1,0s-8.1,3.6-8.1,8.1c0,4.5,3.7,8.1,8.1,8.1"/>
        <path class="cls-7" d="m35.1,43.3c4.5,0,8.1-3.6,8.1-8.1s-3.6-8.1-8.1-8.1-8.1,3.6-8.1,8.1c0,4.4,3.7,8.1,8.1,8.1"/>
        <path class="cls-7" d="m35.1,97.3c4.5,0,8.1-3.6,8.1-8.1s-3.6-8.1-8.1-8.1-8.1,3.6-8.1,8.1c0,4.5,3.7,8.1,8.1,8.1"/>
        <path class="cls-7" d="m35.1,124.4c4.5,0,8.1-3.6,8.1-8.1s-3.6-8.1-8.1-8.1-8.1,3.6-8.1,8.1c0,4.4,3.7,8.1,8.1,8.1"/>
        <path class="cls-7" d="m62.2,16.2c4.5,0,8.1-3.6,8.1-8.1S66.7,0,62.2,0s-8.1,3.6-8.1,8.1,3.6,8.1,8.1,8.1"/>
        <path class="cls-7" d="m62.2,43.3c4.5,0,8.1-3.6,8.1-8.1s-3.6-8.1-8.1-8.1-8.1,3.6-8.1,8.1,3.6,8.1,8.1,8.1"/>
        <path class="cls-7" d="m62.2,70.3c4.5,0,8.1-3.6,8.1-8.1s-3.6-8.1-8.1-8.1-8.1,3.6-8.1,8.1,3.6,8.1,8.1,8.1"/>
        <path class="cls-7" d="m89.2,16.2c4.5,0,8.1-3.6,8.1-8.1S93.7,0,89.2,0s-8.1,3.6-8.1,8.1,3.6,8.1,8.1,8.1"/>
        <path class="cls-7" d="m89.2,43.3c4.5,0,8.1-3.6,8.1-8.1s-3.6-8.1-8.1-8.1-8.1,3.6-8.1,8.1,3.6,8.1,8.1,8.1"/>
        <path class="cls-7" d="m89.2,70.3c4.5,0,8.1-3.6,8.1-8.1s-3.6-8.1-8.1-8.1-8.1,3.6-8.1,8.1,3.6,8.1,8.1,8.1"/>
        <path class="cls-7" d="m89.2,97.3c4.5,0,8.1-3.6,8.1-8.1s-3.6-8.1-8.1-8.1-8.1,3.6-8.1,8.1,3.6,8.1,8.1,8.1"/>
        <path class="cls-7" d="m89.2,124.4c4.5,0,8.1-3.6,8.1-8.1s-3.6-8.1-8.1-8.1-8.1,3.6-8.1,8.1,3.6,8.1,8.1,8.1"/>
        <path class="cls-7" d="m89.2,151.4c4.5,0,8.1-3.6,8.1-8.1s-3.6-8.1-8.1-8.1-8.1,3.6-8.1,8.1,3.6,8.1,8.1,8.1"/>
        <path class="cls-7" d="m89.2,178.4c4.5,0,8.1-3.6,8.1-8.1s-3.6-8.1-8.1-8.1-8.1,3.6-8.1,8.1,3.6,8.1,8.1,8.1"/>
        <path class="cls-7" d="m116.3,16.2c4.5,0,8.1-3.6,8.1-8.1s-3.6-8.1-8.1-8.1-8.1,3.6-8.1,8.1,3.6,8.1,8.1,8.1"/>
        <path class="cls-7" d="m116.3,43.3c4.5,0,8.1-3.6,8.1-8.1s-3.6-8.1-8.1-8.1-8.1,3.6-8.1,8.1,3.6,8.1,8.1,8.1"/>
        <path class="cls-7" d="m116.3,70.3c4.5,0,8.1-3.6,8.1-8.1s-3.6-8.1-8.1-8.1-8.1,3.6-8.1,8.1,3.6,8.1,8.1,8.1"/>
        <path class="cls-7" d="m116.3,97.3c4.5,0,8.1-3.6,8.1-8.1s-3.6-8.1-8.1-8.1-8.1,3.6-8.1,8.1,3.6,8.1,8.1,8.1"/>
        <path class="cls-7" d="m116.3,124.4c4.5,0,8.1-3.6,8.1-8.1s-3.6-8.1-8.1-8.1-8.1,3.6-8.1,8.1,3.6,8.1,8.1,8.1"/>
        <path class="cls-7" d="m116.3,151.4c4.5,0,8.1-3.6,8.1-8.1s-3.6-8.1-8.1-8.1-8.1,3.6-8.1,8.1,3.6,8.1,8.1,8.1"/>
        <path class="cls-7" d="m116.3,178.4c4.5,0,8.1-3.6,8.1-8.1s-3.6-8.1-8.1-8.1-8.1,3.6-8.1,8.1,3.6,8.1,8.1,8.1"/>
        <path class="cls-7" d="m143.3,43.3c4.5,0,8.1-3.6,8.1-8.1s-3.6-8.1-8.1-8.1-8.1,3.6-8.1,8.1,3.6,8.1,8.1,8.1"/>
        <path class="cls-7" d="m143.3,70.3c4.5,0,8.1-3.6,8.1-8.1s-3.6-8.1-8.1-8.1-8.1,3.6-8.1,8.1,3.6,8.1,8.1,8.1"/>
        <path class="cls-7" d="m143.3,97.3c4.5,0,8.1-3.6,8.1-8.1s-3.6-8.1-8.1-8.1-8.1,3.6-8.1,8.1,3.6,8.1,8.1,8.1"/>
        <path class="cls-7" d="m143.3,124.4c4.5,0,8.1-3.6,8.1-8.1s-3.6-8.1-8.1-8.1-8.1,3.6-8.1,8.1,3.6,8.1,8.1,8.1"/>
        <path class="cls-7" d="m143.3,151.4c4.5,0,8.1-3.6,8.1-8.1s-3.6-8.1-8.1-8.1-8.1,3.6-8.1,8.1,3.6,8.1,8.1,8.1"/>
        <path class="cls-7" d="m143.3,178.4c4.5,0,8.1-3.6,8.1-8.1s-3.6-8.1-8.1-8.1-8.1,3.6-8.1,8.1,3.6,8.1,8.1,8.1"/>
        <path class="cls-7" d="m143.3,205.5c4.5,0,8.1-3.6,8.1-8.1s-3.6-8.1-8.1-8.1-8.1,3.6-8.1,8.1,3.6,8.1,8.1,8.1"/>
        <path class="cls-7" d="m170.3,70.3c4.5,0,8.1-3.6,8.1-8.1s-3.6-8.1-8.1-8.1-8.1,3.6-8.1,8.1,3.6,8.1,8.1,8.1"/>
        <path class="cls-7" d="m170.3,97.3c4.5,0,8.1-3.6,8.1-8.1s-3.6-8.1-8.1-8.1-8.1,3.6-8.1,8.1,3.6,8.1,8.1,8.1"/>
        <path class="cls-7" d="m170.3,124.4c4.5,0,8.1-3.6,8.1-8.1s-3.6-8.1-8.1-8.1-8.1,3.6-8.1,8.1,3.6,8.1,8.1,8.1"/>
        <path class="cls-7" d="m170.3,151.4c4.5,0,8.1-3.6,8.1-8.1s-3.6-8.1-8.1-8.1-8.1,3.6-8.1,8.1,3.6,8.1,8.1,8.1"/>
        <path class="cls-7" d="m170.3,178.4c4.5,0,8.1-3.6,8.1-8.1s-3.6-8.1-8.1-8.1-8.1,3.6-8.1,8.1,3.6,8.1,8.1,8.1"/>
        <path class="cls-7" d="m170.3,205.5c4.5,0,8.1-3.6,8.1-8.1s-3.6-8.1-8.1-8.1-8.1,3.6-8.1,8.1,3.6,8.1,8.1,8.1"/>
        <path class="cls-7" d="m197.3,97.3c4.5,0,8.1-3.6,8.1-8.1s-3.6-8.1-8.1-8.1-8.1,3.6-8.1,8.1,3.7,8.1,8.1,8.1"/>
        <path class="cls-7" d="m197.3,178.4c4.5,0,8.1-3.6,8.1-8.1s-3.6-8.1-8.1-8.1-8.1,3.6-8.1,8.1,3.7,8.1,8.1,8.1"/>
        <path class="cls-7" d="m197.3,205.5c4.5,0,8.1-3.6,8.1-8.1s-3.6-8.1-8.1-8.1-8.1,3.6-8.1,8.1,3.7,8.1,8.1,8.1"/>
        <path class="cls-7" d="m197.3,232.5c4.5,0,8.1-3.6,8.1-8.1s-3.6-8.1-8.1-8.1-8.1,3.6-8.1,8.1,3.7,8.1,8.1,8.1"/>
        <path class="cls-7" d="m224.4,205.5c4.5,0,8.1-3.6,8.1-8.1s-3.6-8.1-8.1-8.1-8.1,3.6-8.1,8.1c0,4.4,3.6,8.1,8.1,8.1"/>
        <path class="cls-7" d="m224.4,232.5c4.5,0,8.1-3.6,8.1-8.1s-3.6-8.1-8.1-8.1-8.1,3.6-8.1,8.1,3.6,8.1,8.1,8.1"/>
        <path class="cls-7" d="m251.4,178.4c4.5,0,8.1-3.6,8.1-8.1s-3.6-8.1-8.1-8.1-8.1,3.6-8.1,8.1c0,4.5,3.6,8.1,8.1,8.1"/>
        <path class="cls-7" d="m251.4,205.5c4.5,0,8.1-3.6,8.1-8.1s-3.6-8.1-8.1-8.1-8.1,3.6-8.1,8.1c0,4.4,3.6,8.1,8.1,8.1"/>
        <path class="cls-7" d="m251.4,232.5c4.5,0,8.1-3.6,8.1-8.1s-3.6-8.1-8.1-8.1-8.1,3.6-8.1,8.1c0,4.5,3.6,8.1,8.1,8.1"/>
        <path class="cls-7" d="m305.5,151.4c4.5,0,8.1-3.6,8.1-8.1s-3.6-8.1-8.1-8.1-8.1,3.6-8.1,8.1c0,4.5,3.6,8.1,8.1,8.1"/>
        <path class="cls-7" d="m354.2,141.9c4.5,0,8.1-3.6,8.1-8.1s-3.6-8.1-8.1-8.1-8.1,3.6-8.1,8.1,3.6,8.1,8.1,8.1"/>
        <path class="cls-7" d="m381.3,141.9c4.5,0,8.1-3.6,8.1-8.1s-3.6-8.1-8.1-8.1-8.1,3.6-8.1,8.1,3.6,8.1,8.1,8.1"/>
        <path class="cls-7" d="m408.3,141.9c4.5,0,8.1-3.6,8.1-8.1s-3.6-8.1-8.1-8.1-8.1,3.6-8.1,8.1,3.6,8.1,8.1,8.1"/>
        <path class="cls-7" d="m278.4,178.4c4.5,0,8.1-3.6,8.1-8.1s-3.6-8.1-8.1-8.1-8.1,3.6-8.1,8.1,3.7,8.1,8.1,8.1"/>
        <path class="cls-7" d="m305.5,178.4c4.5,0,8.1-3.6,8.1-8.1s-3.6-8.1-8.1-8.1-8.1,3.6-8.1,8.1c0,4.5,3.6,8.1,8.1,8.1"/>
        <path class="cls-7" d="m408.3,168.9c4.5,0,8.1-3.6,8.1-8.1s-3.6-8.1-8.1-8.1-8.1,3.6-8.1,8.1,3.6,8.1,8.1,8.1"/>
        <path class="cls-7" d="m435.3,168.9c4.5,0,8.1-3.6,8.1-8.1s-3.6-8.1-8.1-8.1-8.1,3.6-8.1,8.1,3.6,8.1,8.1,8.1"/>
        <path class="cls-7" d="m494.7,178.4c4.5,0,8.1-3.6,8.1-8.1s-3.6-8.1-8.1-8.1-8.1,3.6-8.1,8.1,3.6,8.1,8.1,8.1"/>
        <path class="cls-7" d="m521.8,178.4c4.5,0,8.1-3.6,8.1-8.1s-3.6-8.1-8.1-8.1-8.1,3.6-8.1,8.1,3.6,8.1,8.1,8.1"/>
        <path class="cls-7" d="m278.4,205.5c4.5,0,8.1-3.6,8.1-8.1s-3.6-8.1-8.1-8.1-8.1,3.6-8.1,8.1,3.7,8.1,8.1,8.1"/>
        <path class="cls-7" d="m494.7,205.5c4.5,0,8.1-3.6,8.1-8.1s-3.6-8.1-8.1-8.1-8.1,3.6-8.1,8.1,3.6,8.1,8.1,8.1"/>
        <path class="cls-7" d="m521.8,205.5c4.5,0,8.1-3.6,8.1-8.1s-3.6-8.1-8.1-8.1-8.1,3.6-8.1,8.1,3.6,8.1,8.1,8.1"/>
        <path class="cls-7" d="m278.4,232.5c4.5,0,8.1-3.6,8.1-8.1s-3.6-8.1-8.1-8.1-8.1,3.6-8.1,8.1,3.7,8.1,8.1,8.1"/>
        <path class="cls-7" d="m305.5,232.5c4.5,0,8.1-3.6,8.1-8.1s-3.6-8.1-8.1-8.1-8.1,3.6-8.1,8.1c0,4.5,3.6,8.1,8.1,8.1"/>
        <path class="cls-7" d="m332.5,232.5c4.5,0,8.1-3.6,8.1-8.1s-3.6-8.1-8.1-8.1-8.1,3.6-8.1,8.1c0,4.5,3.6,8.1,8.1,8.1"/>
        <path class="cls-7" d="m359.6,286.6c4.5,0,8.1-3.6,8.1-8.1s-3.6-8.1-8.1-8.1-8.1,3.6-8.1,8.1,3.6,8.1,8.1,8.1"/>
        <path class="cls-7" d="m278.4,259.5c4.5,0,8.1-3.6,8.1-8.1s-3.6-8.1-8.1-8.1-8.1,3.6-8.1,8.1,3.7,8.1,8.1,8.1"/>
        <path class="cls-7" d="m305.5,259.5c4.5,0,8.1-3.6,8.1-8.1s-3.6-8.1-8.1-8.1-8.1,3.6-8.1,8.1c0,4.5,3.6,8.1,8.1,8.1"/>
        <path class="cls-7" d="m332.5,259.5c4.5,0,8.1-3.6,8.1-8.1s-3.6-8.1-8.1-8.1-8.1,3.6-8.1,8.1c0,4.5,3.6,8.1,8.1,8.1"/>
        <path class="cls-7" d="m305.5,286.6c4.5,0,8.1-3.6,8.1-8.1s-3.6-8.1-8.1-8.1-8.1,3.6-8.1,8.1,3.6,8.1,8.1,8.1"/>
        <path class="cls-7" d="m332.5,286.6c4.5,0,8.1-3.6,8.1-8.1s-3.6-8.1-8.1-8.1-8.1,3.6-8.1,8.1,3.6,8.1,8.1,8.1"/>
        <path class="cls-7" d="m332.5,313.6c4.5,0,8.1-3.6,8.1-8.1s-3.6-8.1-8.1-8.1-8.1,3.6-8.1,8.1c0,4.5,3.6,8.1,8.1,8.1"/>
        <path class="cls-7" d="m359.6,313.6c4.5,0,8.1-3.6,8.1-8.1s-3.6-8.1-8.1-8.1-8.1,3.6-8.1,8.1,3.6,8.1,8.1,8.1"/>
        <path class="cls-7" d="m386.6,313.6c4.5,0,8.1-3.6,8.1-8.1s-3.6-8.1-8.1-8.1-8.1,3.6-8.1,8.1,3.6,8.1,8.1,8.1"/>
        <path class="cls-7" d="m386.6,340.7c4.5,0,8.1-3.6,8.1-8.1s-3.6-8.1-8.1-8.1-8.1,3.6-8.1,8.1,3.6,8.1,8.1,8.1"/>
        <path class="cls-7" d="m386.6,421.8c4.5,0,8.1-3.6,8.1-8.1s-3.6-8.1-8.1-8.1-8.1,3.6-8.1,8.1,3.6,8.1,8.1,8.1"/>
        <path class="cls-7" d="m386.6,448.8c4.5,0,8.1-3.6,8.1-8.1s-3.6-8.1-8.1-8.1-8.1,3.6-8.1,8.1,3.6,8.1,8.1,8.1"/>
        <path class="cls-7" d="m386.6,502.8c4.5,0,8.1-3.6,8.1-8.1s-3.6-8.1-8.1-8.1-8.1,3.6-8.1,8.1,3.6,8.1,8.1,8.1"/>
        <path class="cls-7" d="m413.6,313.6c4.5,0,8.1-3.6,8.1-8.1s-3.6-8.1-8.1-8.1-8.1,3.6-8.1,8.1,3.7,8.1,8.1,8.1"/>
        <path class="cls-7" d="m413.6,421.8c4.5,0,8.1-3.6,8.1-8.1s-3.6-8.1-8.1-8.1-8.1,3.6-8.1,8.1,3.7,8.1,8.1,8.1"/>
        <path class="cls-7" d="m413.6,448.8c4.5,0,8.1-3.6,8.1-8.1s-3.6-8.1-8.1-8.1-8.1,3.6-8.1,8.1,3.7,8.1,8.1,8.1"/>
        <path class="cls-7" d="m413.6,475.8c4.5,0,8.1-3.6,8.1-8.1s-3.6-8.1-8.1-8.1-8.1,3.6-8.1,8.1,3.7,8.1,8.1,8.1"/>
        <path class="cls-7" d="m413.6,502.8c4.5,0,8.1-3.6,8.1-8.1s-3.6-8.1-8.1-8.1-8.1,3.6-8.1,8.1,3.7,8.1,8.1,8.1"/>
        <path class="cls-7" d="m413.6,529.9c4.5,0,8.1-3.6,8.1-8.1s-3.6-8.1-8.1-8.1-8.1,3.6-8.1,8.1,3.7,8.1,8.1,8.1"/>
        <path class="cls-7" d="m413.6,556.9c4.5,0,8.1-3.6,8.1-8.1s-3.6-8.1-8.1-8.1-8.1,3.6-8.1,8.1,3.7,8.1,8.1,8.1"/>
        <path class="cls-7" d="m440.7,313.6c4.5,0,8.1-3.6,8.1-8.1s-3.6-8.1-8.1-8.1-8.1,3.6-8.1,8.1,3.6,8.1,8.1,8.1"/>
        <path class="cls-7" d="m440.7,340.7c4.5,0,8.1-3.6,8.1-8.1s-3.6-8.1-8.1-8.1-8.1,3.6-8.1,8.1,3.6,8.1,8.1,8.1"/>
        <path class="cls-7" d="m440.7,367.7c4.5,0,8.1-3.6,8.1-8.1s-3.6-8.1-8.1-8.1-8.1,3.6-8.1,8.1,3.6,8.1,8.1,8.1"/>
        <path class="cls-7" d="m440.7,394.7c4.5,0,8.1-3.6,8.1-8.1s-3.6-8.1-8.1-8.1-8.1,3.6-8.1,8.1,3.6,8.1,8.1,8.1"/>
        <path class="cls-7" d="m440.7,421.8c4.5,0,8.1-3.6,8.1-8.1s-3.6-8.1-8.1-8.1-8.1,3.6-8.1,8.1,3.6,8.1,8.1,8.1"/>
        <path class="cls-7" d="m440.7,448.8c4.5,0,8.1-3.6,8.1-8.1s-3.6-8.1-8.1-8.1-8.1,3.6-8.1,8.1,3.6,8.1,8.1,8.1"/>
        <path class="cls-7" d="m440.7,475.8c4.5,0,8.1-3.6,8.1-8.1s-3.6-8.1-8.1-8.1-8.1,3.6-8.1,8.1,3.6,8.1,8.1,8.1"/>
        <path class="cls-7" d="m440.7,502.8c4.5,0,8.1-3.6,8.1-8.1s-3.6-8.1-8.1-8.1-8.1,3.6-8.1,8.1,3.6,8.1,8.1,8.1"/>
        <path class="cls-7" d="m440.7,529.9c4.5,0,8.1-3.6,8.1-8.1s-3.6-8.1-8.1-8.1-8.1,3.6-8.1,8.1,3.6,8.1,8.1,8.1"/>
        <path class="cls-7" d="m440.7,556.9c4.5,0,8.1-3.6,8.1-8.1s-3.6-8.1-8.1-8.1-8.1,3.6-8.1,8.1,3.6,8.1,8.1,8.1"/>
        <path class="cls-7" d="m440.7,584c4.5,0,8.1-3.6,8.1-8.1s-3.6-8.1-8.1-8.1-8.1,3.6-8.1,8.1,3.6,8.1,8.1,8.1"/>
        <path class="cls-7" d="m440.7,611c4.5,0,8.1-3.6,8.1-8.1s-3.6-8.1-8.1-8.1-8.1,3.6-8.1,8.1,3.6,8.1,8.1,8.1"/>
        <path class="cls-7" d="m467.7,286.6c4.5,0,8.1-3.6,8.1-8.1s-3.6-8.1-8.1-8.1-8.1,3.6-8.1,8.1,3.6,8.1,8.1,8.1"/>
        <path class="cls-7" d="m467.7,313.6c4.5,0,8.1-3.6,8.1-8.1s-3.6-8.1-8.1-8.1-8.1,3.6-8.1,8.1,3.6,8.1,8.1,8.1"/>
        <path class="cls-7" d="m467.7,340.7c4.5,0,8.1-3.6,8.1-8.1s-3.6-8.1-8.1-8.1-8.1,3.6-8.1,8.1,3.6,8.1,8.1,8.1"/>
        <path class="cls-7" d="m467.7,367.7c4.5,0,8.1-3.6,8.1-8.1s-3.6-8.1-8.1-8.1-8.1,3.6-8.1,8.1,3.6,8.1,8.1,8.1"/>
        <path class="cls-7" d="m467.7,394.7c4.5,0,8.1-3.6,8.1-8.1s-3.6-8.1-8.1-8.1-8.1,3.6-8.1,8.1,3.6,8.1,8.1,8.1"/>
        <path class="cls-7" d="m467.7,421.8c4.5,0,8.1-3.6,8.1-8.1s-3.6-8.1-8.1-8.1-8.1,3.6-8.1,8.1,3.6,8.1,8.1,8.1"/>
        <path class="cls-7" d="m467.7,448.8c4.5,0,8.1-3.6,8.1-8.1s-3.6-8.1-8.1-8.1-8.1,3.6-8.1,8.1,3.6,8.1,8.1,8.1"/>
        <path class="cls-7" d="m467.7,475.8c4.5,0,8.1-3.6,8.1-8.1s-3.6-8.1-8.1-8.1-8.1,3.6-8.1,8.1,3.6,8.1,8.1,8.1"/>
        <path class="cls-7" d="m467.7,502.8c4.5,0,8.1-3.6,8.1-8.1s-3.6-8.1-8.1-8.1-8.1,3.6-8.1,8.1,3.6,8.1,8.1,8.1"/>
        <path class="cls-7" d="m467.7,529.9c4.5,0,8.1-3.6,8.1-8.1s-3.6-8.1-8.1-8.1-8.1,3.6-8.1,8.1,3.6,8.1,8.1,8.1"/>
        <path class="cls-7" d="m467.7,556.9c4.5,0,8.1-3.6,8.1-8.1s-3.6-8.1-8.1-8.1-8.1,3.6-8.1,8.1,3.6,8.1,8.1,8.1"/>
        <path class="cls-7" d="m467.7,584c4.5,0,8.1-3.6,8.1-8.1s-3.6-8.1-8.1-8.1-8.1,3.6-8.1,8.1,3.6,8.1,8.1,8.1"/>
        <path class="cls-7" d="m467.7,611c4.5,0,8.1-3.6,8.1-8.1s-3.6-8.1-8.1-8.1-8.1,3.6-8.1,8.1,3.6,8.1,8.1,8.1"/>
        <path class="cls-7" d="m467.7,638c4.5,0,8.1-3.6,8.1-8.1s-3.6-8.1-8.1-8.1-8.1,3.6-8.1,8.1,3.6,8.1,8.1,8.1"/>
        <path class="cls-7" d="m467.7,962.4c4.5,0,8.1-3.6,8.1-8.1s-3.6-8.1-8.1-8.1-8.1,3.6-8.1,8.1,3.6,8.1,8.1,8.1"/>
        <path class="cls-7" d="m467.7,1016.5c4.5,0,8.1-3.6,8.1-8.1s-3.6-8.1-8.1-8.1-8.1,3.6-8.1,8.1,3.6,8.1,8.1,8.1"/>
        <path class="cls-7" d="m467.7,1043.5c4.5,0,8.1-3.6,8.1-8.1s-3.6-8.1-8.1-8.1-8.1,3.6-8.1,8.1,3.6,8.1,8.1,8.1"/>
        <path class="cls-7" d="m494.7,286.6c4.5,0,8.1-3.6,8.1-8.1s-3.6-8.1-8.1-8.1-8.1,3.6-8.1,8.1,3.6,8.1,8.1,8.1"/>
        <path class="cls-7" d="m494.7,313.6c4.5,0,8.1-3.6,8.1-8.1s-3.6-8.1-8.1-8.1-8.1,3.6-8.1,8.1,3.6,8.1,8.1,8.1"/>
        <path class="cls-7" d="m494.7,340.7c4.5,0,8.1-3.6,8.1-8.1s-3.6-8.1-8.1-8.1-8.1,3.6-8.1,8.1,3.6,8.1,8.1,8.1"/>
        <path class="cls-7" d="m494.7,367.7c4.5,0,8.1-3.6,8.1-8.1s-3.6-8.1-8.1-8.1-8.1,3.6-8.1,8.1,3.6,8.1,8.1,8.1"/>
        <path class="cls-7" d="m494.7,394.7c4.5,0,8.1-3.6,8.1-8.1s-3.6-8.1-8.1-8.1-8.1,3.6-8.1,8.1,3.6,8.1,8.1,8.1"/>
        <path class="cls-7" d="m494.7,421.8c4.5,0,8.1-3.6,8.1-8.1s-3.6-8.1-8.1-8.1-8.1,3.6-8.1,8.1,3.6,8.1,8.1,8.1"/>
        <path class="cls-7" d="m494.7,448.8c4.5,0,8.1-3.6,8.1-8.1s-3.6-8.1-8.1-8.1-8.1,3.6-8.1,8.1,3.6,8.1,8.1,8.1"/>
        <path class="cls-7" d="m494.7,475.8c4.5,0,8.1-3.6,8.1-8.1s-3.6-8.1-8.1-8.1-8.1,3.6-8.1,8.1,3.6,8.1,8.1,8.1"/>
        <path class="cls-7" d="m494.7,502.8c4.5,0,8.1-3.6,8.1-8.1s-3.6-8.1-8.1-8.1-8.1,3.6-8.1,8.1,3.6,8.1,8.1,8.1"/>
        <path class="cls-7" d="m494.7,529.9c4.5,0,8.1-3.6,8.1-8.1s-3.6-8.1-8.1-8.1-8.1,3.6-8.1,8.1,3.6,8.1,8.1,8.1"/>
        <path class="cls-7" d="m494.7,556.9c4.5,0,8.1-3.6,8.1-8.1s-3.6-8.1-8.1-8.1-8.1,3.6-8.1,8.1,3.6,8.1,8.1,8.1"/>
        <path class="cls-7" d="m494.7,584c4.5,0,8.1-3.6,8.1-8.1s-3.6-8.1-8.1-8.1-8.1,3.6-8.1,8.1,3.6,8.1,8.1,8.1"/>
        <path class="cls-7" d="m494.7,611c4.5,0,8.1-3.6,8.1-8.1s-3.6-8.1-8.1-8.1-8.1,3.6-8.1,8.1,3.6,8.1,8.1,8.1"/>
        <path class="cls-7" d="m494.7,638c4.5,0,8.1-3.6,8.1-8.1s-3.6-8.1-8.1-8.1-8.1,3.6-8.1,8.1,3.6,8.1,8.1,8.1"/>
        <path class="cls-7" d="m494.7,881.3c4.5,0,8.1-3.6,8.1-8.1s-3.6-8.1-8.1-8.1-8.1,3.6-8.1,8.1,3.6,8.1,8.1,8.1"/>
        <path class="cls-7" d="m494.7,908.4c4.5,0,8.1-3.6,8.1-8.1s-3.6-8.1-8.1-8.1-8.1,3.6-8.1,8.1,3.6,8.1,8.1,8.1"/>
        <path class="cls-7" d="m494.7,935.4c4.5,0,8.1-3.6,8.1-8.1s-3.6-8.1-8.1-8.1-8.1,3.6-8.1,8.1,3.6,8.1,8.1,8.1"/>
        <path class="cls-7" d="m494.7,962.4c4.5,0,8.1-3.6,8.1-8.1s-3.6-8.1-8.1-8.1-8.1,3.6-8.1,8.1,3.6,8.1,8.1,8.1"/>
        <path class="cls-7" d="m494.7,989.5c4.5,0,8.1-3.6,8.1-8.1s-3.6-8.1-8.1-8.1-8.1,3.6-8.1,8.1,3.6,8.1,8.1,8.1"/>
        <path class="cls-7" d="m494.7,1016.5c4.5,0,8.1-3.6,8.1-8.1s-3.6-8.1-8.1-8.1-8.1,3.6-8.1,8.1,3.6,8.1,8.1,8.1"/>
        <path class="cls-7" d="m494.7,1043.5c4.5,0,8.1-3.6,8.1-8.1s-3.6-8.1-8.1-8.1-8.1,3.6-8.1,8.1,3.6,8.1,8.1,8.1"/>
        <path class="cls-7" d="m494.7,1070.6c4.5,0,8.1-3.6,8.1-8.1s-3.6-8.1-8.1-8.1-8.1,3.6-8.1,8.1,3.6,8.1,8.1,8.1"/>
        <path class="cls-7" d="m494.7,1097.6c4.5,0,8.1-3.6,8.1-8.1s-3.6-8.1-8.1-8.1-8.1,3.6-8.1,8.1,3.6,8.1,8.1,8.1"/>
        <path class="cls-7" d="m521.8,286.6c4.5,0,8.1-3.6,8.1-8.1s-3.6-8.1-8.1-8.1-8.1,3.6-8.1,8.1,3.6,8.1,8.1,8.1"/>
        <path class="cls-7" d="m521.8,313.6c4.5,0,8.1-3.6,8.1-8.1s-3.6-8.1-8.1-8.1-8.1,3.6-8.1,8.1,3.6,8.1,8.1,8.1"/>
        <path class="cls-7" d="m521.8,340.7c4.5,0,8.1-3.6,8.1-8.1s-3.6-8.1-8.1-8.1-8.1,3.6-8.1,8.1,3.6,8.1,8.1,8.1"/>
        <path class="cls-7" d="m521.8,367.7c4.5,0,8.1-3.6,8.1-8.1s-3.6-8.1-8.1-8.1-8.1,3.6-8.1,8.1,3.6,8.1,8.1,8.1"/>
        <path class="cls-7" d="m521.8,394.7c4.5,0,8.1-3.6,8.1-8.1s-3.6-8.1-8.1-8.1-8.1,3.6-8.1,8.1,3.6,8.1,8.1,8.1"/>
        <path class="cls-7" d="m521.8,421.8c4.5,0,8.1-3.6,8.1-8.1s-3.6-8.1-8.1-8.1-8.1,3.6-8.1,8.1,3.6,8.1,8.1,8.1"/>
        <path class="cls-7" d="m521.8,448.8c4.5,0,8.1-3.6,8.1-8.1s-3.6-8.1-8.1-8.1-8.1,3.6-8.1,8.1,3.6,8.1,8.1,8.1"/>
        <path class="cls-7" d="m521.8,475.8c4.5,0,8.1-3.6,8.1-8.1s-3.6-8.1-8.1-8.1-8.1,3.6-8.1,8.1,3.6,8.1,8.1,8.1"/>
        <path class="cls-7" d="m521.8,502.8c4.5,0,8.1-3.6,8.1-8.1s-3.6-8.1-8.1-8.1-8.1,3.6-8.1,8.1,3.6,8.1,8.1,8.1"/>
        <path class="cls-7" d="m521.8,529.9c4.5,0,8.1-3.6,8.1-8.1s-3.6-8.1-8.1-8.1-8.1,3.6-8.1,8.1,3.6,8.1,8.1,8.1"/>
        <path class="cls-7" d="m521.8,556.9c4.5,0,8.1-3.6,8.1-8.1s-3.6-8.1-8.1-8.1-8.1,3.6-8.1,8.1,3.6,8.1,8.1,8.1"/>
        <path class="cls-7" d="m521.8,584c4.5,0,8.1-3.6,8.1-8.1s-3.6-8.1-8.1-8.1-8.1,3.6-8.1,8.1,3.6,8.1,8.1,8.1"/>
        <path class="cls-7" d="m521.8,611c4.5,0,8.1-3.6,8.1-8.1s-3.6-8.1-8.1-8.1-8.1,3.6-8.1,8.1,3.6,8.1,8.1,8.1"/>
        <path class="cls-7" d="m521.8,638c4.5,0,8.1-3.6,8.1-8.1s-3.6-8.1-8.1-8.1-8.1,3.6-8.1,8.1,3.6,8.1,8.1,8.1"/>
        <path class="cls-7" d="m521.8,665.1c4.5,0,8.1-3.6,8.1-8.1s-3.6-8.1-8.1-8.1-8.1,3.6-8.1,8.1,3.6,8.1,8.1,8.1"/>
        <path class="cls-7" d="m521.8,692.1c4.5,0,8.1-3.6,8.1-8.1s-3.6-8.1-8.1-8.1-8.1,3.6-8.1,8.1,3.6,8.1,8.1,8.1"/>
        <path class="cls-7" d="m521.8,719.1c4.5,0,8.1-3.6,8.1-8.1s-3.6-8.1-8.1-8.1-8.1,3.6-8.1,8.1,3.6,8.1,8.1,8.1"/>
        <path class="cls-7" d="m521.8,746.2c4.5,0,8.1-3.6,8.1-8.1s-3.6-8.1-8.1-8.1-8.1,3.6-8.1,8.1,3.6,8.1,8.1,8.1"/>
        <path class="cls-7" d="m521.8,773.2c4.5,0,8.1-3.6,8.1-8.1s-3.6-8.1-8.1-8.1-8.1,3.6-8.1,8.1,3.6,8.1,8.1,8.1"/>
        <path class="cls-7" d="m521.8,800.2c4.5,0,8.1-3.6,8.1-8.1s-3.6-8.1-8.1-8.1-8.1,3.6-8.1,8.1,3.6,8.1,8.1,8.1"/>
        <path class="cls-7" d="m521.8,827.3c4.5,0,8.1-3.6,8.1-8.1s-3.6-8.1-8.1-8.1-8.1,3.6-8.1,8.1,3.6,8.1,8.1,8.1"/>
        <path class="cls-7" d="m521.8,854.3c4.5,0,8.1-3.6,8.1-8.1s-3.6-8.1-8.1-8.1-8.1,3.6-8.1,8.1,3.6,8.1,8.1,8.1"/>
        <path class="cls-7" d="m521.8,881.3c4.5,0,8.1-3.6,8.1-8.1s-3.6-8.1-8.1-8.1-8.1,3.6-8.1,8.1,3.6,8.1,8.1,8.1"/>
        <path class="cls-7" d="m521.8,908.4c4.5,0,8.1-3.6,8.1-8.1s-3.6-8.1-8.1-8.1-8.1,3.6-8.1,8.1,3.6,8.1,8.1,8.1"/>
        <path class="cls-7" d="m521.8,935.4c4.5,0,8.1-3.6,8.1-8.1s-3.6-8.1-8.1-8.1-8.1,3.6-8.1,8.1,3.6,8.1,8.1,8.1"/>
        <path class="cls-7" d="m521.8,962.4c4.5,0,8.1-3.6,8.1-8.1s-3.6-8.1-8.1-8.1-8.1,3.6-8.1,8.1,3.6,8.1,8.1,8.1"/>
        <path class="cls-7" d="m521.8,989.5c4.5,0,8.1-3.6,8.1-8.1s-3.6-8.1-8.1-8.1-8.1,3.6-8.1,8.1,3.6,8.1,8.1,8.1"/>
        <path class="cls-7" d="m521.8,1016.5c4.5,0,8.1-3.6,8.1-8.1s-3.6-8.1-8.1-8.1-8.1,3.6-8.1,8.1,3.6,8.1,8.1,8.1"/>
        <path class="cls-7" d="m521.8,1043.5c4.5,0,8.1-3.6,8.1-8.1s-3.6-8.1-8.1-8.1-8.1,3.6-8.1,8.1,3.6,8.1,8.1,8.1"/>
        <path class="cls-7" d="m521.8,1070.6c4.5,0,8.1-3.6,8.1-8.1s-3.6-8.1-8.1-8.1-8.1,3.6-8.1,8.1,3.6,8.1,8.1,8.1"/>
        <path class="cls-7" d="m548.8,286.6c4.5,0,8.1-3.6,8.1-8.1s-3.6-8.1-8.1-8.1-8.1,3.6-8.1,8.1,3.6,8.1,8.1,8.1"/>
        <path class="cls-7" d="m548.8,313.6c4.5,0,8.1-3.6,8.1-8.1s-3.6-8.1-8.1-8.1-8.1,3.6-8.1,8.1,3.6,8.1,8.1,8.1"/>
        <path class="cls-7" d="m548.8,340.7c4.5,0,8.1-3.6,8.1-8.1s-3.6-8.1-8.1-8.1-8.1,3.6-8.1,8.1,3.6,8.1,8.1,8.1"/>
        <path class="cls-7" d="m548.8,367.7c4.5,0,8.1-3.6,8.1-8.1s-3.6-8.1-8.1-8.1-8.1,3.6-8.1,8.1,3.6,8.1,8.1,8.1"/>
        <path class="cls-7" d="m548.8,394.7c4.5,0,8.1-3.6,8.1-8.1s-3.6-8.1-8.1-8.1-8.1,3.6-8.1,8.1,3.6,8.1,8.1,8.1"/>
        <path class="cls-7" d="m548.8,421.8c4.5,0,8.1-3.6,8.1-8.1s-3.6-8.1-8.1-8.1-8.1,3.6-8.1,8.1,3.6,8.1,8.1,8.1"/>
        <path class="cls-7" d="m548.8,448.8c4.5,0,8.1-3.6,8.1-8.1s-3.6-8.1-8.1-8.1-8.1,3.6-8.1,8.1,3.6,8.1,8.1,8.1"/>
        <path class="cls-7" d="m548.8,475.8c4.5,0,8.1-3.6,8.1-8.1s-3.6-8.1-8.1-8.1-8.1,3.6-8.1,8.1,3.6,8.1,8.1,8.1"/>
        <path class="cls-7" d="m548.8,502.8c4.5,0,8.1-3.6,8.1-8.1s-3.6-8.1-8.1-8.1-8.1,3.6-8.1,8.1,3.6,8.1,8.1,8.1"/>
        <path class="cls-7" d="m548.8,529.9c4.5,0,8.1-3.6,8.1-8.1s-3.6-8.1-8.1-8.1-8.1,3.6-8.1,8.1,3.6,8.1,8.1,8.1"/>
        <path class="cls-7" d="m548.8,556.9c4.5,0,8.1-3.6,8.1-8.1s-3.6-8.1-8.1-8.1-8.1,3.6-8.1,8.1,3.6,8.1,8.1,8.1"/>
        <path class="cls-7" d="m548.8,584c4.5,0,8.1-3.6,8.1-8.1s-3.6-8.1-8.1-8.1-8.1,3.6-8.1,8.1,3.6,8.1,8.1,8.1"/>
        <path class="cls-7" d="m548.8,611c4.5,0,8.1-3.6,8.1-8.1s-3.6-8.1-8.1-8.1-8.1,3.6-8.1,8.1,3.6,8.1,8.1,8.1"/>
        <path class="cls-7" d="m548.8,638c4.5,0,8.1-3.6,8.1-8.1s-3.6-8.1-8.1-8.1-8.1,3.6-8.1,8.1,3.6,8.1,8.1,8.1"/>
        <path class="cls-7" d="m548.8,665.1c4.5,0,8.1-3.6,8.1-8.1s-3.6-8.1-8.1-8.1-8.1,3.6-8.1,8.1,3.6,8.1,8.1,8.1"/>
        <path class="cls-7" d="m548.8,692.1c4.5,0,8.1-3.6,8.1-8.1s-3.6-8.1-8.1-8.1-8.1,3.6-8.1,8.1,3.6,8.1,8.1,8.1"/>
        <path class="cls-7" d="m548.8,719.1c4.5,0,8.1-3.6,8.1-8.1s-3.6-8.1-8.1-8.1-8.1,3.6-8.1,8.1,3.6,8.1,8.1,8.1"/>
        <path class="cls-7" d="m548.8,746.2c4.5,0,8.1-3.6,8.1-8.1s-3.6-8.1-8.1-8.1-8.1,3.6-8.1,8.1,3.6,8.1,8.1,8.1"/>
        <path class="cls-7" d="m548.8,773.2c4.5,0,8.1-3.6,8.1-8.1s-3.6-8.1-8.1-8.1-8.1,3.6-8.1,8.1,3.6,8.1,8.1,8.1"/>
        <path class="cls-7" d="m548.8,800.2c4.5,0,8.1-3.6,8.1-8.1s-3.6-8.1-8.1-8.1-8.1,3.6-8.1,8.1,3.6,8.1,8.1,8.1"/>
        <path class="cls-7" d="m548.8,827.3c4.5,0,8.1-3.6,8.1-8.1s-3.6-8.1-8.1-8.1-8.1,3.6-8.1,8.1,3.6,8.1,8.1,8.1"/>
        <path class="cls-7" d="m548.8,854.3c4.5,0,8.1-3.6,8.1-8.1s-3.6-8.1-8.1-8.1-8.1,3.6-8.1,8.1,3.6,8.1,8.1,8.1"/>
        <path class="cls-7" d="m548.8,881.3c4.5,0,8.1-3.6,8.1-8.1s-3.6-8.1-8.1-8.1-8.1,3.6-8.1,8.1,3.6,8.1,8.1,8.1"/>
        <path class="cls-7" d="m548.8,908.4c4.5,0,8.1-3.6,8.1-8.1s-3.6-8.1-8.1-8.1-8.1,3.6-8.1,8.1,3.6,8.1,8.1,8.1"/>
        <path class="cls-7" d="m548.8,935.4c4.5,0,8.1-3.6,8.1-8.1s-3.6-8.1-8.1-8.1-8.1,3.6-8.1,8.1,3.6,8.1,8.1,8.1"/>
        <path class="cls-7" d="m548.8,962.4c4.5,0,8.1-3.6,8.1-8.1s-3.6-8.1-8.1-8.1-8.1,3.6-8.1,8.1,3.6,8.1,8.1,8.1"/>
        <path class="cls-7" d="m548.8,989.5c4.5,0,8.1-3.6,8.1-8.1s-3.6-8.1-8.1-8.1-8.1,3.6-8.1,8.1,3.6,8.1,8.1,8.1"/>
        <path class="cls-7" d="m548.8,1016.5c4.5,0,8.1-3.6,8.1-8.1s-3.6-8.1-8.1-8.1-8.1,3.6-8.1,8.1,3.6,8.1,8.1,8.1"/>
        <path class="cls-7" d="m575.8,313.6c4.5,0,8.1-3.6,8.1-8.1s-3.6-8.1-8.1-8.1-8.1,3.6-8.1,8.1,3.7,8.1,8.1,8.1"/>
        <path class="cls-7" d="m575.8,340.7c4.5,0,8.1-3.6,8.1-8.1s-3.6-8.1-8.1-8.1-8.1,3.6-8.1,8.1,3.7,8.1,8.1,8.1"/>
        <path class="cls-7" d="m575.8,367.7c4.5,0,8.1-3.6,8.1-8.1s-3.6-8.1-8.1-8.1-8.1,3.6-8.1,8.1,3.7,8.1,8.1,8.1"/>
        <path class="cls-7" d="m575.8,394.7c4.5,0,8.1-3.6,8.1-8.1s-3.6-8.1-8.1-8.1-8.1,3.6-8.1,8.1,3.7,8.1,8.1,8.1"/>
        <path class="cls-7" d="m575.8,421.8c4.5,0,8.1-3.6,8.1-8.1s-3.6-8.1-8.1-8.1-8.1,3.6-8.1,8.1,3.7,8.1,8.1,8.1"/>
        <path class="cls-7" d="m575.8,448.8c4.5,0,8.1-3.6,8.1-8.1s-3.6-8.1-8.1-8.1-8.1,3.6-8.1,8.1,3.7,8.1,8.1,8.1"/>
        <path class="cls-7" d="m575.8,475.8c4.5,0,8.1-3.6,8.1-8.1s-3.6-8.1-8.1-8.1-8.1,3.6-8.1,8.1,3.7,8.1,8.1,8.1"/>
        <path class="cls-7" d="m575.8,502.8c4.5,0,8.1-3.6,8.1-8.1s-3.6-8.1-8.1-8.1-8.1,3.6-8.1,8.1,3.7,8.1,8.1,8.1"/>
        <path class="cls-7" d="m575.8,529.9c4.5,0,8.1-3.6,8.1-8.1s-3.6-8.1-8.1-8.1-8.1,3.6-8.1,8.1,3.7,8.1,8.1,8.1"/>
        <path class="cls-7" d="m575.8,556.9c4.5,0,8.1-3.6,8.1-8.1s-3.6-8.1-8.1-8.1-8.1,3.6-8.1,8.1,3.7,8.1,8.1,8.1"/>
        <path class="cls-7" d="m575.8,584c4.5,0,8.1-3.6,8.1-8.1s-3.6-8.1-8.1-8.1-8.1,3.6-8.1,8.1,3.7,8.1,8.1,8.1"/>
        <path class="cls-7" d="m575.8,611c4.5,0,8.1-3.6,8.1-8.1s-3.6-8.1-8.1-8.1-8.1,3.6-8.1,8.1,3.7,8.1,8.1,8.1"/>
        <path class="cls-7" d="m575.8,638c4.5,0,8.1-3.6,8.1-8.1s-3.6-8.1-8.1-8.1-8.1,3.6-8.1,8.1,3.7,8.1,8.1,8.1"/>
        <path class="cls-7" d="m575.8,665.1c4.5,0,8.1-3.6,8.1-8.1s-3.6-8.1-8.1-8.1-8.1,3.6-8.1,8.1,3.7,8.1,8.1,8.1"/>
        <path class="cls-7" d="m575.8,692.1c4.5,0,8.1-3.6,8.1-8.1s-3.6-8.1-8.1-8.1-8.1,3.6-8.1,8.1,3.7,8.1,8.1,8.1"/>
        <path class="cls-7" d="m575.8,719.1c4.5,0,8.1-3.6,8.1-8.1s-3.6-8.1-8.1-8.1-8.1,3.6-8.1,8.1,3.7,8.1,8.1,8.1"/>
        <path class="cls-7" d="m575.8,746.2c4.5,0,8.1-3.6,8.1-8.1s-3.6-8.1-8.1-8.1-8.1,3.6-8.1,8.1,3.7,8.1,8.1,8.1"/>
        <path class="cls-7" d="m575.8,773.2c4.5,0,8.1-3.6,8.1-8.1s-3.6-8.1-8.1-8.1-8.1,3.6-8.1,8.1,3.7,8.1,8.1,8.1"/>
        <path class="cls-7" d="m575.8,800.2c4.5,0,8.1-3.6,8.1-8.1s-3.6-8.1-8.1-8.1-8.1,3.6-8.1,8.1,3.7,8.1,8.1,8.1"/>
        <path class="cls-7" d="m575.8,827.3c4.5,0,8.1-3.6,8.1-8.1s-3.6-8.1-8.1-8.1-8.1,3.6-8.1,8.1,3.7,8.1,8.1,8.1"/>
        <path class="cls-7" d="m575.8,854.3c4.5,0,8.1-3.6,8.1-8.1s-3.6-8.1-8.1-8.1-8.1,3.6-8.1,8.1,3.7,8.1,8.1,8.1"/>
        <path class="cls-7" d="m575.8,881.3c4.5,0,8.1-3.6,8.1-8.1s-3.6-8.1-8.1-8.1-8.1,3.6-8.1,8.1,3.7,8.1,8.1,8.1"/>
        <path class="cls-7" d="m575.8,908.4c4.5,0,8.1-3.6,8.1-8.1s-3.6-8.1-8.1-8.1-8.1,3.6-8.1,8.1,3.7,8.1,8.1,8.1"/>
        <path class="cls-7" d="m575.8,935.4c4.5,0,8.1-3.6,8.1-8.1s-3.6-8.1-8.1-8.1-8.1,3.6-8.1,8.1,3.7,8.1,8.1,8.1"/>
        <path class="cls-7" d="m575.8,962.4c4.5,0,8.1-3.6,8.1-8.1s-3.6-8.1-8.1-8.1-8.1,3.6-8.1,8.1,3.7,8.1,8.1,8.1"/>
        <path class="cls-7" d="m602.9,313.6c4.5,0,8.1-3.6,8.1-8.1s-3.6-8.1-8.1-8.1-8.1,3.6-8.1,8.1,3.6,8.1,8.1,8.1"/>
        <path class="cls-7" d="m602.9,340.7c4.5,0,8.1-3.6,8.1-8.1s-3.6-8.1-8.1-8.1-8.1,3.6-8.1,8.1,3.6,8.1,8.1,8.1"/>
        <path class="cls-7" d="m602.9,367.7c4.5,0,8.1-3.6,8.1-8.1s-3.6-8.1-8.1-8.1-8.1,3.6-8.1,8.1,3.6,8.1,8.1,8.1"/>
        <path class="cls-7" d="m602.9,394.7c4.5,0,8.1-3.6,8.1-8.1s-3.6-8.1-8.1-8.1-8.1,3.6-8.1,8.1,3.6,8.1,8.1,8.1"/>
        <path class="cls-7" d="m602.9,421.8c4.5,0,8.1-3.6,8.1-8.1s-3.6-8.1-8.1-8.1-8.1,3.6-8.1,8.1,3.6,8.1,8.1,8.1"/>
        <path class="cls-7" d="m602.9,448.8c4.5,0,8.1-3.6,8.1-8.1s-3.6-8.1-8.1-8.1-8.1,3.6-8.1,8.1,3.6,8.1,8.1,8.1"/>
        <path class="cls-7" d="m602.9,475.8c4.5,0,8.1-3.6,8.1-8.1s-3.6-8.1-8.1-8.1-8.1,3.6-8.1,8.1c0,4.5,3.6,8.1,8.1,8.1"/>
        <path class="cls-7" d="m602.9,502.8c4.5,0,8.1-3.6,8.1-8.1s-3.6-8.1-8.1-8.1-8.1,3.6-8.1,8.1c0,4.5,3.6,8.1,8.1,8.1"/>
        <path class="cls-7" d="m602.9,529.9c4.5,0,8.1-3.6,8.1-8.1s-3.6-8.1-8.1-8.1-8.1,3.6-8.1,8.1,3.6,8.1,8.1,8.1"/>
        <path class="cls-7" d="m602.9,556.9c4.5,0,8.1-3.6,8.1-8.1s-3.6-8.1-8.1-8.1-8.1,3.6-8.1,8.1,3.6,8.1,8.1,8.1"/>
        <path class="cls-7" d="m602.9,584c4.5,0,8.1-3.6,8.1-8.1s-3.6-8.1-8.1-8.1-8.1,3.6-8.1,8.1c0,4.4,3.6,8.1,8.1,8.1"/>
        <path class="cls-7" d="m602.9,611c4.5,0,8.1-3.6,8.1-8.1s-3.6-8.1-8.1-8.1-8.1,3.6-8.1,8.1,3.6,8.1,8.1,8.1"/>
        <path class="cls-7" d="m602.9,638c4.5,0,8.1-3.6,8.1-8.1s-3.6-8.1-8.1-8.1-8.1,3.6-8.1,8.1c0,4.5,3.6,8.1,8.1,8.1"/>
        <path class="cls-7" d="m602.9,665.1c4.5,0,8.1-3.6,8.1-8.1s-3.6-8.1-8.1-8.1-8.1,3.6-8.1,8.1,3.6,8.1,8.1,8.1"/>
        <path class="cls-7" d="m602.9,692.1c4.5,0,8.1-3.6,8.1-8.1s-3.6-8.1-8.1-8.1-8.1,3.6-8.1,8.1,3.6,8.1,8.1,8.1"/>
        <path class="cls-7" d="m602.9,719.1c4.5,0,8.1-3.6,8.1-8.1s-3.6-8.1-8.1-8.1-8.1,3.6-8.1,8.1,3.6,8.1,8.1,8.1"/>
        <path class="cls-7" d="m602.9,746.2c4.5,0,8.1-3.6,8.1-8.1s-3.6-8.1-8.1-8.1-8.1,3.6-8.1,8.1,3.6,8.1,8.1,8.1"/>
        <path class="cls-7" d="m602.9,773.2c4.5,0,8.1-3.6,8.1-8.1s-3.6-8.1-8.1-8.1-8.1,3.6-8.1,8.1,3.6,8.1,8.1,8.1"/>
        <path class="cls-7" d="m602.9,800.2c4.5,0,8.1-3.6,8.1-8.1s-3.6-8.1-8.1-8.1-8.1,3.6-8.1,8.1,3.6,8.1,8.1,8.1"/>
        <path class="cls-7" d="m602.9,827.3c4.5,0,8.1-3.6,8.1-8.1s-3.6-8.1-8.1-8.1-8.1,3.6-8.1,8.1,3.6,8.1,8.1,8.1"/>
        <path class="cls-7" d="m602.9,854.3c4.5,0,8.1-3.6,8.1-8.1s-3.6-8.1-8.1-8.1-8.1,3.6-8.1,8.1,3.6,8.1,8.1,8.1"/>
        <path class="cls-7" d="m602.9,881.3c4.5,0,8.1-3.6,8.1-8.1s-3.6-8.1-8.1-8.1-8.1,3.6-8.1,8.1c0,4.5,3.6,8.1,8.1,8.1"/>
        <path class="cls-7" d="m602.9,908.4c4.5,0,8.1-3.6,8.1-8.1s-3.6-8.1-8.1-8.1-8.1,3.6-8.1,8.1,3.6,8.1,8.1,8.1"/>
        <path class="cls-7" d="m602.9,935.4c4.5,0,8.1-3.6,8.1-8.1s-3.6-8.1-8.1-8.1-8.1,3.6-8.1,8.1,3.6,8.1,8.1,8.1"/>
        <path class="cls-7" d="m602.9,1059.4c4.5,0,8.1-3.6,8.1-8.1s-3.6-8.1-8.1-8.1-8.1,3.6-8.1,8.1,3.6,8.1,8.1,8.1"/>
        <path class="cls-7" d="m629.9,313.6c4.5,0,8.1-3.6,8.1-8.1s-3.6-8.1-8.1-8.1-8.1,3.6-8.1,8.1,3.6,8.1,8.1,8.1"/>
        <path class="cls-7" d="m629.9,340.7c4.5,0,8.1-3.6,8.1-8.1s-3.6-8.1-8.1-8.1-8.1,3.6-8.1,8.1,3.6,8.1,8.1,8.1"/>
        <path class="cls-7" d="m629.9,367.7c4.5,0,8.1-3.6,8.1-8.1s-3.6-8.1-8.1-8.1-8.1,3.6-8.1,8.1,3.6,8.1,8.1,8.1"/>
        <path class="cls-7" d="m629.9,394.7c4.5,0,8.1-3.6,8.1-8.1s-3.6-8.1-8.1-8.1-8.1,3.6-8.1,8.1,3.6,8.1,8.1,8.1"/>
        <path class="cls-7" d="m629.9,421.8c4.5,0,8.1-3.6,8.1-8.1s-3.6-8.1-8.1-8.1-8.1,3.6-8.1,8.1,3.6,8.1,8.1,8.1"/>
        <path class="cls-7" d="m629.9,448.8c4.5,0,8.1-3.6,8.1-8.1s-3.6-8.1-8.1-8.1-8.1,3.6-8.1,8.1,3.6,8.1,8.1,8.1"/>
        <path class="cls-7" d="m629.9,475.8c4.5,0,8.1-3.6,8.1-8.1s-3.6-8.1-8.1-8.1-8.1,3.6-8.1,8.1c0,4.5,3.6,8.1,8.1,8.1"/>
        <path class="cls-7" d="m629.9,502.8c4.5,0,8.1-3.6,8.1-8.1s-3.6-8.1-8.1-8.1-8.1,3.6-8.1,8.1c0,4.5,3.6,8.1,8.1,8.1"/>
        <path class="cls-7" d="m629.9,529.9c4.5,0,8.1-3.6,8.1-8.1s-3.6-8.1-8.1-8.1-8.1,3.6-8.1,8.1,3.6,8.1,8.1,8.1"/>
        <path class="cls-7" d="m629.9,556.9c4.5,0,8.1-3.6,8.1-8.1s-3.6-8.1-8.1-8.1-8.1,3.6-8.1,8.1,3.6,8.1,8.1,8.1"/>
        <path class="cls-7" d="m629.9,584c4.5,0,8.1-3.6,8.1-8.1s-3.6-8.1-8.1-8.1-8.1,3.6-8.1,8.1c0,4.4,3.6,8.1,8.1,8.1"/>
        <path class="cls-7" d="m629.9,611c4.5,0,8.1-3.6,8.1-8.1s-3.6-8.1-8.1-8.1-8.1,3.6-8.1,8.1,3.6,8.1,8.1,8.1"/>
        <path class="cls-7" d="m629.9,638c4.5,0,8.1-3.6,8.1-8.1s-3.6-8.1-8.1-8.1-8.1,3.6-8.1,8.1c0,4.5,3.6,8.1,8.1,8.1"/>
        <path class="cls-7" d="m629.9,665.1c4.5,0,8.1-3.6,8.1-8.1s-3.6-8.1-8.1-8.1-8.1,3.6-8.1,8.1,3.6,8.1,8.1,8.1"/>
        <path class="cls-7" d="m629.9,692.1c4.5,0,8.1-3.6,8.1-8.1s-3.6-8.1-8.1-8.1-8.1,3.6-8.1,8.1,3.6,8.1,8.1,8.1"/>
        <path class="cls-7" d="m629.9,719.1c4.5,0,8.1-3.6,8.1-8.1s-3.6-8.1-8.1-8.1-8.1,3.6-8.1,8.1,3.6,8.1,8.1,8.1"/>
        <path class="cls-7" d="m629.9,746.2c4.5,0,8.1-3.6,8.1-8.1s-3.6-8.1-8.1-8.1-8.1,3.6-8.1,8.1,3.6,8.1,8.1,8.1"/>
        <path class="cls-7" d="m629.9,773.2c4.5,0,8.1-3.6,8.1-8.1s-3.6-8.1-8.1-8.1-8.1,3.6-8.1,8.1,3.6,8.1,8.1,8.1"/>
        <path class="cls-7" d="m629.9,800.2c4.5,0,8.1-3.6,8.1-8.1s-3.6-8.1-8.1-8.1-8.1,3.6-8.1,8.1,3.6,8.1,8.1,8.1"/>
        <path class="cls-7" d="m629.9,827.3c4.5,0,8.1-3.6,8.1-8.1s-3.6-8.1-8.1-8.1-8.1,3.6-8.1,8.1,3.6,8.1,8.1,8.1"/>
        <path class="cls-7" d="m629.9,854.3c4.5,0,8.1-3.6,8.1-8.1s-3.6-8.1-8.1-8.1-8.1,3.6-8.1,8.1,3.6,8.1,8.1,8.1"/>
        <path class="cls-7" d="m629.9,881.3c4.5,0,8.1-3.6,8.1-8.1s-3.6-8.1-8.1-8.1-8.1,3.6-8.1,8.1c0,4.5,3.6,8.1,8.1,8.1"/>
        <path class="cls-7" d="m629.9,908.4c4.5,0,8.1-3.6,8.1-8.1s-3.6-8.1-8.1-8.1-8.1,3.6-8.1,8.1,3.6,8.1,8.1,8.1"/>
        <path class="cls-7" d="m629.9,935.4c4.5,0,8.1-3.6,8.1-8.1s-3.6-8.1-8.1-8.1-8.1,3.6-8.1,8.1,3.6,8.1,8.1,8.1"/>
        <path class="cls-7" d="m629.9,1059.4c4.5,0,8.1-3.6,8.1-8.1s-3.6-8.1-8.1-8.1-8.1,3.6-8.1,8.1,3.6,8.1,8.1,8.1"/>
        <path class="cls-7" d="m656.9,340.7c4.5,0,8.1-3.6,8.1-8.1s-3.6-8.1-8.1-8.1-8.1,3.6-8.1,8.1,3.6,8.1,8.1,8.1"/>
        <path class="cls-7" d="m656.9,367.7c4.5,0,8.1-3.6,8.1-8.1s-3.6-8.1-8.1-8.1-8.1,3.6-8.1,8.1,3.6,8.1,8.1,8.1"/>
        <path class="cls-7" d="m656.9,394.7c4.5,0,8.1-3.6,8.1-8.1s-3.6-8.1-8.1-8.1-8.1,3.6-8.1,8.1,3.6,8.1,8.1,8.1"/>
        <path class="cls-7" d="m656.9,421.8c4.5,0,8.1-3.6,8.1-8.1s-3.6-8.1-8.1-8.1-8.1,3.6-8.1,8.1,3.6,8.1,8.1,8.1"/>
        <path class="cls-7" d="m656.9,448.8c4.5,0,8.1-3.6,8.1-8.1s-3.6-8.1-8.1-8.1-8.1,3.6-8.1,8.1,3.6,8.1,8.1,8.1"/>
        <path class="cls-7" d="m656.9,475.8c4.5,0,8.1-3.6,8.1-8.1s-3.6-8.1-8.1-8.1-8.1,3.6-8.1,8.1c0,4.5,3.6,8.1,8.1,8.1"/>
        <path class="cls-7" d="m656.9,502.8c4.5,0,8.1-3.6,8.1-8.1s-3.6-8.1-8.1-8.1-8.1,3.6-8.1,8.1c0,4.5,3.6,8.1,8.1,8.1"/>
        <path class="cls-7" d="m656.9,529.9c4.5,0,8.1-3.6,8.1-8.1s-3.6-8.1-8.1-8.1-8.1,3.6-8.1,8.1,3.6,8.1,8.1,8.1"/>
        <path class="cls-7" d="m656.9,556.9c4.5,0,8.1-3.6,8.1-8.1s-3.6-8.1-8.1-8.1-8.1,3.6-8.1,8.1,3.6,8.1,8.1,8.1"/>
        <path class="cls-7" d="m656.9,584c4.5,0,8.1-3.6,8.1-8.1s-3.6-8.1-8.1-8.1-8.1,3.6-8.1,8.1c0,4.4,3.6,8.1,8.1,8.1"/>
        <path class="cls-7" d="m656.9,611c4.5,0,8.1-3.6,8.1-8.1s-3.6-8.1-8.1-8.1-8.1,3.6-8.1,8.1,3.6,8.1,8.1,8.1"/>
        <path class="cls-7" d="m656.9,638c4.5,0,8.1-3.6,8.1-8.1s-3.6-8.1-8.1-8.1-8.1,3.6-8.1,8.1c0,4.5,3.6,8.1,8.1,8.1"/>
        <path class="cls-7" d="m656.9,665.1c4.5,0,8.1-3.6,8.1-8.1s-3.6-8.1-8.1-8.1-8.1,3.6-8.1,8.1,3.6,8.1,8.1,8.1"/>
        <path class="cls-7" d="m656.9,692.1c4.5,0,8.1-3.6,8.1-8.1s-3.6-8.1-8.1-8.1-8.1,3.6-8.1,8.1,3.6,8.1,8.1,8.1"/>
        <path class="cls-7" d="m656.9,719.1c4.5,0,8.1-3.6,8.1-8.1s-3.6-8.1-8.1-8.1-8.1,3.6-8.1,8.1,3.6,8.1,8.1,8.1"/>
        <path class="cls-7" d="m656.9,746.2c4.5,0,8.1-3.6,8.1-8.1s-3.6-8.1-8.1-8.1-8.1,3.6-8.1,8.1,3.6,8.1,8.1,8.1"/>
        <path class="cls-7" d="m656.9,773.2c4.5,0,8.1-3.6,8.1-8.1s-3.6-8.1-8.1-8.1-8.1,3.6-8.1,8.1,3.6,8.1,8.1,8.1"/>
        <path class="cls-7" d="m656.9,800.2c4.5,0,8.1-3.6,8.1-8.1s-3.6-8.1-8.1-8.1-8.1,3.6-8.1,8.1,3.6,8.1,8.1,8.1"/>
        <path class="cls-7" d="m656.9,827.3c4.5,0,8.1-3.6,8.1-8.1s-3.6-8.1-8.1-8.1-8.1,3.6-8.1,8.1,3.6,8.1,8.1,8.1"/>
        <path class="cls-7" d="m656.9,854.3c4.5,0,8.1-3.6,8.1-8.1s-3.6-8.1-8.1-8.1-8.1,3.6-8.1,8.1,3.6,8.1,8.1,8.1"/>
        <path class="cls-7" d="m656.9,881.3c4.5,0,8.1-3.6,8.1-8.1s-3.6-8.1-8.1-8.1-8.1,3.6-8.1,8.1c0,4.5,3.6,8.1,8.1,8.1"/>
        <path class="cls-7" d="m656.9,908.4c4.5,0,8.1-3.6,8.1-8.1s-3.6-8.1-8.1-8.1-8.1,3.6-8.1,8.1,3.6,8.1,8.1,8.1"/>
        <path class="cls-7" d="m684,340.7c4.5,0,8.1-3.6,8.1-8.1s-3.6-8.1-8.1-8.1-8.1,3.6-8.1,8.1,3.6,8.1,8.1,8.1"/>
        <path class="cls-7" d="m684,367.7c4.5,0,8.1-3.6,8.1-8.1s-3.6-8.1-8.1-8.1-8.1,3.6-8.1,8.1,3.6,8.1,8.1,8.1"/>
        <path class="cls-7" d="m684,394.7c4.5,0,8.1-3.6,8.1-8.1s-3.6-8.1-8.1-8.1-8.1,3.6-8.1,8.1,3.6,8.1,8.1,8.1"/>
        <path class="cls-7" d="m684,421.8c4.5,0,8.1-3.6,8.1-8.1s-3.6-8.1-8.1-8.1-8.1,3.6-8.1,8.1,3.6,8.1,8.1,8.1"/>
        <path class="cls-7" d="m684,448.8c4.5,0,8.1-3.6,8.1-8.1s-3.6-8.1-8.1-8.1-8.1,3.6-8.1,8.1,3.6,8.1,8.1,8.1"/>
        <path class="cls-7" d="m684,475.8c4.5,0,8.1-3.6,8.1-8.1s-3.6-8.1-8.1-8.1-8.1,3.6-8.1,8.1,3.6,8.1,8.1,8.1"/>
        <path class="cls-7" d="m684,502.8c4.5,0,8.1-3.6,8.1-8.1s-3.6-8.1-8.1-8.1-8.1,3.6-8.1,8.1,3.6,8.1,8.1,8.1"/>
        <path class="cls-7" d="m684,529.9c4.5,0,8.1-3.6,8.1-8.1s-3.6-8.1-8.1-8.1-8.1,3.6-8.1,8.1,3.6,8.1,8.1,8.1"/>
        <path class="cls-7" d="m684,556.9c4.5,0,8.1-3.6,8.1-8.1s-3.6-8.1-8.1-8.1-8.1,3.6-8.1,8.1,3.6,8.1,8.1,8.1"/>
        <path class="cls-7" d="m684,584c4.5,0,8.1-3.6,8.1-8.1s-3.6-8.1-8.1-8.1-8.1,3.6-8.1,8.1,3.6,8.1,8.1,8.1"/>
        <path class="cls-7" d="m684,611c4.5,0,8.1-3.6,8.1-8.1s-3.6-8.1-8.1-8.1-8.1,3.6-8.1,8.1,3.6,8.1,8.1,8.1"/>
        <path class="cls-7" d="m684,638c4.5,0,8.1-3.6,8.1-8.1s-3.6-8.1-8.1-8.1-8.1,3.6-8.1,8.1,3.6,8.1,8.1,8.1"/>
        <path class="cls-7" d="m684,665.1c4.5,0,8.1-3.6,8.1-8.1s-3.6-8.1-8.1-8.1-8.1,3.6-8.1,8.1,3.6,8.1,8.1,8.1"/>
        <path class="cls-7" d="m684,692.1c4.5,0,8.1-3.6,8.1-8.1s-3.6-8.1-8.1-8.1-8.1,3.6-8.1,8.1,3.6,8.1,8.1,8.1"/>
        <path class="cls-7" d="m684,719.1c4.5,0,8.1-3.6,8.1-8.1s-3.6-8.1-8.1-8.1-8.1,3.6-8.1,8.1,3.6,8.1,8.1,8.1"/>
        <path class="cls-7" d="m684,746.2c4.5,0,8.1-3.6,8.1-8.1s-3.6-8.1-8.1-8.1-8.1,3.6-8.1,8.1,3.6,8.1,8.1,8.1"/>
        <path class="cls-7" d="m684,773.2c4.5,0,8.1-3.6,8.1-8.1s-3.6-8.1-8.1-8.1-8.1,3.6-8.1,8.1,3.6,8.1,8.1,8.1"/>
        <path class="cls-7" d="m684,800.2c4.5,0,8.1-3.6,8.1-8.1s-3.6-8.1-8.1-8.1-8.1,3.6-8.1,8.1,3.6,8.1,8.1,8.1"/>
        <path class="cls-7" d="m684,827.3c4.5,0,8.1-3.6,8.1-8.1s-3.6-8.1-8.1-8.1-8.1,3.6-8.1,8.1,3.6,8.1,8.1,8.1"/>
        <path class="cls-7" d="m684,854.3c4.5,0,8.1-3.6,8.1-8.1s-3.6-8.1-8.1-8.1-8.1,3.6-8.1,8.1,3.6,8.1,8.1,8.1"/>
        <path class="cls-7" d="m684,881.3c4.5,0,8.1-3.6,8.1-8.1s-3.6-8.1-8.1-8.1-8.1,3.6-8.1,8.1,3.6,8.1,8.1,8.1"/>
        <path class="cls-7" d="m711,367.7c4.5,0,8.1-3.6,8.1-8.1s-3.6-8.1-8.1-8.1-8.1,3.6-8.1,8.1,3.6,8.1,8.1,8.1"/>
        <path class="cls-7" d="m711,394.7c4.5,0,8.1-3.6,8.1-8.1s-3.6-8.1-8.1-8.1-8.1,3.6-8.1,8.1,3.6,8.1,8.1,8.1"/>
        <path class="cls-7" d="m711,421.8c4.5,0,8.1-3.6,8.1-8.1s-3.6-8.1-8.1-8.1-8.1,3.6-8.1,8.1,3.6,8.1,8.1,8.1"/>
        <path class="cls-7" d="m711,448.8c4.5,0,8.1-3.6,8.1-8.1s-3.6-8.1-8.1-8.1-8.1,3.6-8.1,8.1,3.6,8.1,8.1,8.1"/>
        <path class="cls-7" d="m711,475.8c4.5,0,8.1-3.6,8.1-8.1s-3.6-8.1-8.1-8.1-8.1,3.6-8.1,8.1,3.6,8.1,8.1,8.1"/>
        <path class="cls-7" d="m711,502.8c4.5,0,8.1-3.6,8.1-8.1s-3.6-8.1-8.1-8.1-8.1,3.6-8.1,8.1,3.6,8.1,8.1,8.1"/>
        <path class="cls-7" d="m711,529.9c4.5,0,8.1-3.6,8.1-8.1s-3.6-8.1-8.1-8.1-8.1,3.6-8.1,8.1,3.6,8.1,8.1,8.1"/>
        <path class="cls-7" d="m711,556.9c4.5,0,8.1-3.6,8.1-8.1s-3.6-8.1-8.1-8.1-8.1,3.6-8.1,8.1,3.6,8.1,8.1,8.1"/>
        <path class="cls-7" d="m711,584c4.5,0,8.1-3.6,8.1-8.1s-3.6-8.1-8.1-8.1-8.1,3.6-8.1,8.1,3.6,8.1,8.1,8.1"/>
        <path class="cls-7" d="m711,611c4.5,0,8.1-3.6,8.1-8.1s-3.6-8.1-8.1-8.1-8.1,3.6-8.1,8.1,3.6,8.1,8.1,8.1"/>
        <path class="cls-7" d="m711,638c4.5,0,8.1-3.6,8.1-8.1s-3.6-8.1-8.1-8.1-8.1,3.6-8.1,8.1,3.6,8.1,8.1,8.1"/>
        <path class="cls-7" d="m711,665.1c4.5,0,8.1-3.6,8.1-8.1s-3.6-8.1-8.1-8.1-8.1,3.6-8.1,8.1,3.6,8.1,8.1,8.1"/>
        <path class="cls-7" d="m711,692.1c4.5,0,8.1-3.6,8.1-8.1s-3.6-8.1-8.1-8.1-8.1,3.6-8.1,8.1,3.6,8.1,8.1,8.1"/>
        <path class="cls-7" d="m711,719.1c4.5,0,8.1-3.6,8.1-8.1s-3.6-8.1-8.1-8.1-8.1,3.6-8.1,8.1,3.6,8.1,8.1,8.1"/>
        <path class="cls-7" d="m711,746.2c4.5,0,8.1-3.6,8.1-8.1s-3.6-8.1-8.1-8.1-8.1,3.6-8.1,8.1,3.6,8.1,8.1,8.1"/>
        <path class="cls-7" d="m711,773.2c4.5,0,8.1-3.6,8.1-8.1s-3.6-8.1-8.1-8.1-8.1,3.6-8.1,8.1,3.6,8.1,8.1,8.1"/>
        <path class="cls-7" d="m711,800.2c4.5,0,8.1-3.6,8.1-8.1s-3.6-8.1-8.1-8.1-8.1,3.6-8.1,8.1,3.6,8.1,8.1,8.1"/>
        <path class="cls-7" d="m711,827.3c4.5,0,8.1-3.6,8.1-8.1s-3.6-8.1-8.1-8.1-8.1,3.6-8.1,8.1,3.6,8.1,8.1,8.1"/>
        <path class="cls-7" d="m711,854.3c4.5,0,8.1-3.6,8.1-8.1s-3.6-8.1-8.1-8.1-8.1,3.6-8.1,8.1,3.6,8.1,8.1,8.1"/>
        <path class="cls-7" d="m738,367.7c4.5,0,8.1-3.6,8.1-8.1s-3.6-8.1-8.1-8.1-8.1,3.6-8.1,8.1,3.7,8.1,8.1,8.1"/>
        <path class="cls-7" d="m738,394.7c4.5,0,8.1-3.6,8.1-8.1s-3.6-8.1-8.1-8.1-8.1,3.6-8.1,8.1,3.7,8.1,8.1,8.1"/>
        <path class="cls-7" d="m738,421.8c4.5,0,8.1-3.6,8.1-8.1s-3.6-8.1-8.1-8.1-8.1,3.6-8.1,8.1,3.7,8.1,8.1,8.1"/>
        <path class="cls-7" d="m738,448.8c4.5,0,8.1-3.6,8.1-8.1s-3.6-8.1-8.1-8.1-8.1,3.6-8.1,8.1,3.7,8.1,8.1,8.1"/>
        <path class="cls-7" d="m738,475.8c4.5,0,8.1-3.6,8.1-8.1s-3.6-8.1-8.1-8.1-8.1,3.6-8.1,8.1,3.7,8.1,8.1,8.1"/>
        <path class="cls-7" d="m738,502.8c4.5,0,8.1-3.6,8.1-8.1s-3.6-8.1-8.1-8.1-8.1,3.6-8.1,8.1,3.7,8.1,8.1,8.1"/>
        <path class="cls-7" d="m738,529.9c4.5,0,8.1-3.6,8.1-8.1s-3.6-8.1-8.1-8.1-8.1,3.6-8.1,8.1,3.7,8.1,8.1,8.1"/>
        <path class="cls-7" d="m738,556.9c4.5,0,8.1-3.6,8.1-8.1s-3.6-8.1-8.1-8.1-8.1,3.6-8.1,8.1,3.7,8.1,8.1,8.1"/>
        <path class="cls-7" d="m738,584c4.5,0,8.1-3.6,8.1-8.1s-3.6-8.1-8.1-8.1-8.1,3.6-8.1,8.1,3.7,8.1,8.1,8.1"/>
        <path class="cls-7" d="m738,611c4.5,0,8.1-3.6,8.1-8.1s-3.6-8.1-8.1-8.1-8.1,3.6-8.1,8.1,3.7,8.1,8.1,8.1"/>
        <path class="cls-7" d="m738,638c4.5,0,8.1-3.6,8.1-8.1s-3.6-8.1-8.1-8.1-8.1,3.6-8.1,8.1,3.7,8.1,8.1,8.1"/>
        <path class="cls-7" d="m738,665.1c4.5,0,8.1-3.6,8.1-8.1s-3.6-8.1-8.1-8.1-8.1,3.6-8.1,8.1,3.7,8.1,8.1,8.1"/>
        <path class="cls-7" d="m738,692.1c4.5,0,8.1-3.6,8.1-8.1s-3.6-8.1-8.1-8.1-8.1,3.6-8.1,8.1,3.7,8.1,8.1,8.1"/>
        <path class="cls-7" d="m738,719.1c4.5,0,8.1-3.6,8.1-8.1s-3.6-8.1-8.1-8.1-8.1,3.6-8.1,8.1,3.7,8.1,8.1,8.1"/>
        <path class="cls-7" d="m738,746.2c4.5,0,8.1-3.6,8.1-8.1s-3.6-8.1-8.1-8.1-8.1,3.6-8.1,8.1,3.7,8.1,8.1,8.1"/>
        <path class="cls-7" d="m738,773.2c4.5,0,8.1-3.6,8.1-8.1s-3.6-8.1-8.1-8.1-8.1,3.6-8.1,8.1,3.7,8.1,8.1,8.1"/>
        <path class="cls-7" d="m738,800.2c4.5,0,8.1-3.6,8.1-8.1s-3.6-8.1-8.1-8.1-8.1,3.6-8.1,8.1,3.7,8.1,8.1,8.1"/>
        <path class="cls-7" d="m738,827.3c4.5,0,8.1-3.6,8.1-8.1s-3.6-8.1-8.1-8.1-8.1,3.6-8.1,8.1,3.7,8.1,8.1,8.1"/>
        <path class="cls-7" d="m765.1,394.7c4.5,0,8.1-3.6,8.1-8.1s-3.6-8.1-8.1-8.1-8.1,3.6-8.1,8.1,3.6,8.1,8.1,8.1"/>
        <path class="cls-7" d="m765.1,421.8c4.5,0,8.1-3.6,8.1-8.1s-3.6-8.1-8.1-8.1-8.1,3.6-8.1,8.1,3.6,8.1,8.1,8.1"/>
        <path class="cls-7" d="m765.1,448.8c4.5,0,8.1-3.6,8.1-8.1s-3.6-8.1-8.1-8.1-8.1,3.6-8.1,8.1,3.6,8.1,8.1,8.1"/>
        <path class="cls-7" d="m765.1,475.8c4.5,0,8.1-3.6,8.1-8.1s-3.6-8.1-8.1-8.1-8.1,3.6-8.1,8.1c0,4.5,3.6,8.1,8.1,8.1"/>
        <path class="cls-7" d="m765.1,502.8c4.5,0,8.1-3.6,8.1-8.1s-3.6-8.1-8.1-8.1-8.1,3.6-8.1,8.1c0,4.5,3.6,8.1,8.1,8.1"/>
        <path class="cls-7" d="m765.1,529.9c4.5,0,8.1-3.6,8.1-8.1s-3.6-8.1-8.1-8.1-8.1,3.6-8.1,8.1,3.6,8.1,8.1,8.1"/>
        <path class="cls-7" d="m765.1,556.9c4.5,0,8.1-3.6,8.1-8.1s-3.6-8.1-8.1-8.1-8.1,3.6-8.1,8.1,3.6,8.1,8.1,8.1"/>
        <path class="cls-7" d="m765.1,584c4.5,0,8.1-3.6,8.1-8.1s-3.6-8.1-8.1-8.1-8.1,3.6-8.1,8.1c0,4.4,3.6,8.1,8.1,8.1"/>
        <path class="cls-7" d="m765.1,611c4.5,0,8.1-3.6,8.1-8.1s-3.6-8.1-8.1-8.1-8.1,3.6-8.1,8.1,3.6,8.1,8.1,8.1"/>
        <path class="cls-7" d="m765.1,638c4.5,0,8.1-3.6,8.1-8.1s-3.6-8.1-8.1-8.1-8.1,3.6-8.1,8.1c0,4.5,3.6,8.1,8.1,8.1"/>
        <path class="cls-7" d="m765.1,665.1c4.5,0,8.1-3.6,8.1-8.1s-3.6-8.1-8.1-8.1-8.1,3.6-8.1,8.1,3.6,8.1,8.1,8.1"/>
        <path class="cls-7" d="m765.1,692.1c4.5,0,8.1-3.6,8.1-8.1s-3.6-8.1-8.1-8.1-8.1,3.6-8.1,8.1,3.6,8.1,8.1,8.1"/>
        <path class="cls-7" d="m765.1,719.1c4.5,0,8.1-3.6,8.1-8.1s-3.6-8.1-8.1-8.1-8.1,3.6-8.1,8.1,3.6,8.1,8.1,8.1"/>
        <path class="cls-7" d="m765.1,746.2c4.5,0,8.1-3.6,8.1-8.1s-3.6-8.1-8.1-8.1-8.1,3.6-8.1,8.1,3.6,8.1,8.1,8.1"/>
        <path class="cls-7" d="m765.1,773.2c4.5,0,8.1-3.6,8.1-8.1s-3.6-8.1-8.1-8.1-8.1,3.6-8.1,8.1,3.6,8.1,8.1,8.1"/>
        <path class="cls-7" d="m765.1,800.2c4.5,0,8.1-3.6,8.1-8.1s-3.6-8.1-8.1-8.1-8.1,3.6-8.1,8.1,3.6,8.1,8.1,8.1"/>
        <path class="cls-7" d="m792.1,448.8c4.5,0,8.1-3.6,8.1-8.1s-3.6-8.1-8.1-8.1-8.1,3.6-8.1,8.1,3.6,8.1,8.1,8.1"/>
        <path class="cls-7" d="m792.1,475.8c4.5,0,8.1-3.6,8.1-8.1s-3.6-8.1-8.1-8.1-8.1,3.6-8.1,8.1c0,4.5,3.6,8.1,8.1,8.1"/>
        <path class="cls-7" d="m792.1,502.8c4.5,0,8.1-3.6,8.1-8.1s-3.6-8.1-8.1-8.1-8.1,3.6-8.1,8.1c0,4.5,3.6,8.1,8.1,8.1"/>
        <path class="cls-7" d="m792.1,529.9c4.5,0,8.1-3.6,8.1-8.1s-3.6-8.1-8.1-8.1-8.1,3.6-8.1,8.1,3.6,8.1,8.1,8.1"/>
        <path class="cls-7" d="m792.1,556.9c4.5,0,8.1-3.6,8.1-8.1s-3.6-8.1-8.1-8.1-8.1,3.6-8.1,8.1,3.6,8.1,8.1,8.1"/>
        <path class="cls-7" d="m792.1,584c4.5,0,8.1-3.6,8.1-8.1s-3.6-8.1-8.1-8.1-8.1,3.6-8.1,8.1c0,4.4,3.6,8.1,8.1,8.1"/>
        <path class="cls-7" d="m792.1,611c4.5,0,8.1-3.6,8.1-8.1s-3.6-8.1-8.1-8.1-8.1,3.6-8.1,8.1,3.6,8.1,8.1,8.1"/>
        <path class="cls-7" d="m792.1,638c4.5,0,8.1-3.6,8.1-8.1s-3.6-8.1-8.1-8.1-8.1,3.6-8.1,8.1c0,4.5,3.6,8.1,8.1,8.1"/>
        <path class="cls-7" d="m792.1,665.1c4.5,0,8.1-3.6,8.1-8.1s-3.6-8.1-8.1-8.1-8.1,3.6-8.1,8.1,3.6,8.1,8.1,8.1"/>
        <path class="cls-7" d="m792.1,692.1c4.5,0,8.1-3.6,8.1-8.1s-3.6-8.1-8.1-8.1-8.1,3.6-8.1,8.1,3.6,8.1,8.1,8.1"/>
        <path class="cls-7" d="m792.1,719.1c4.5,0,8.1-3.6,8.1-8.1s-3.6-8.1-8.1-8.1-8.1,3.6-8.1,8.1,3.6,8.1,8.1,8.1"/>
        <path class="cls-7" d="m792.1,746.2c4.5,0,8.1-3.6,8.1-8.1s-3.6-8.1-8.1-8.1-8.1,3.6-8.1,8.1,3.6,8.1,8.1,8.1"/>
        <path class="cls-7" d="m819.1,448.8c4.5,0,8.1-3.6,8.1-8.1s-3.6-8.1-8.1-8.1-8.1,3.6-8.1,8.1,3.7,8.1,8.1,8.1"/>
        <path class="cls-7" d="m819.1,475.8c4.5,0,8.1-3.6,8.1-8.1s-3.6-8.1-8.1-8.1-8.1,3.6-8.1,8.1c0,4.5,3.7,8.1,8.1,8.1"/>
        <path class="cls-7" d="m819.1,502.8c4.5,0,8.1-3.6,8.1-8.1s-3.6-8.1-8.1-8.1-8.1,3.6-8.1,8.1c0,4.5,3.7,8.1,8.1,8.1"/>
        <path class="cls-7" d="m819.1,529.9c4.5,0,8.1-3.6,8.1-8.1s-3.6-8.1-8.1-8.1-8.1,3.6-8.1,8.1,3.7,8.1,8.1,8.1"/>
        <path class="cls-7" d="m819.1,556.9c4.5,0,8.1-3.6,8.1-8.1s-3.6-8.1-8.1-8.1-8.1,3.6-8.1,8.1,3.7,8.1,8.1,8.1"/>
        <path class="cls-7" d="m819.1,584c4.5,0,8.1-3.6,8.1-8.1s-3.6-8.1-8.1-8.1-8.1,3.6-8.1,8.1c0,4.4,3.7,8.1,8.1,8.1"/>
        <path class="cls-7" d="m819.1,611c4.5,0,8.1-3.6,8.1-8.1s-3.6-8.1-8.1-8.1-8.1,3.6-8.1,8.1,3.7,8.1,8.1,8.1"/>
        <path class="cls-7" d="m819.1,638c4.5,0,8.1-3.6,8.1-8.1s-3.6-8.1-8.1-8.1-8.1,3.6-8.1,8.1c0,4.5,3.7,8.1,8.1,8.1"/>
        <path class="cls-7" d="m819.1,665.1c4.5,0,8.1-3.6,8.1-8.1s-3.6-8.1-8.1-8.1-8.1,3.6-8.1,8.1,3.7,8.1,8.1,8.1"/>
        <path class="cls-7" d="m819.1,692.1c4.5,0,8.1-3.6,8.1-8.1s-3.6-8.1-8.1-8.1-8.1,3.6-8.1,8.1,3.7,8.1,8.1,8.1"/>
        <path class="cls-7" d="m819.1,719.1c4.5,0,8.1-3.6,8.1-8.1s-3.6-8.1-8.1-8.1-8.1,3.6-8.1,8.1,3.7,8.1,8.1,8.1"/>
        <path class="cls-7" d="m819.1,746.2c4.5,0,8.1-3.6,8.1-8.1s-3.6-8.1-8.1-8.1-8.1,3.6-8.1,8.1,3.7,8.1,8.1,8.1"/>
        <path class="cls-7" d="m846.2,475.8c4.5,0,8.1-3.6,8.1-8.1s-3.6-8.1-8.1-8.1-8.1,3.6-8.1,8.1,3.6,8.1,8.1,8.1"/>
        <path class="cls-7" d="m846.2,502.8c4.5,0,8.1-3.6,8.1-8.1s-3.6-8.1-8.1-8.1-8.1,3.6-8.1,8.1,3.6,8.1,8.1,8.1"/>
        <path class="cls-7" d="m846.2,529.9c4.5,0,8.1-3.6,8.1-8.1s-3.6-8.1-8.1-8.1-8.1,3.6-8.1,8.1,3.6,8.1,8.1,8.1"/>
        <path class="cls-7" d="m846.2,556.9c4.5,0,8.1-3.6,8.1-8.1s-3.6-8.1-8.1-8.1-8.1,3.6-8.1,8.1,3.6,8.1,8.1,8.1"/>
        <path class="cls-7" d="m846.2,584c4.5,0,8.1-3.6,8.1-8.1s-3.6-8.1-8.1-8.1-8.1,3.6-8.1,8.1,3.6,8.1,8.1,8.1"/>
        <path class="cls-7" d="m846.2,611c4.5,0,8.1-3.6,8.1-8.1s-3.6-8.1-8.1-8.1-8.1,3.6-8.1,8.1,3.6,8.1,8.1,8.1"/>
        <path class="cls-7" d="m846.2,638c4.5,0,8.1-3.6,8.1-8.1s-3.6-8.1-8.1-8.1-8.1,3.6-8.1,8.1,3.6,8.1,8.1,8.1"/>
        <path class="cls-7" d="m846.2,665.1c4.5,0,8.1-3.6,8.1-8.1s-3.6-8.1-8.1-8.1-8.1,3.6-8.1,8.1,3.6,8.1,8.1,8.1"/>
        <path class="cls-7" d="m846.2,692.1c4.5,0,8.1-3.6,8.1-8.1s-3.6-8.1-8.1-8.1-8.1,3.6-8.1,8.1,3.6,8.1,8.1,8.1"/>
        <path class="cls-7" d="m846.2,719.1c4.5,0,8.1-3.6,8.1-8.1s-3.6-8.1-8.1-8.1-8.1,3.6-8.1,8.1,3.6,8.1,8.1,8.1"/>
        <path class="cls-7" d="m873.2,475.8c4.5,0,8.1-3.6,8.1-8.1s-3.6-8.1-8.1-8.1-8.1,3.6-8.1,8.1,3.6,8.1,8.1,8.1"/>
        <path class="cls-7" d="m873.2,502.8c4.5,0,8.1-3.6,8.1-8.1s-3.6-8.1-8.1-8.1-8.1,3.6-8.1,8.1,3.6,8.1,8.1,8.1"/>
        <path class="cls-7" d="m873.2,529.9c4.5,0,8.1-3.6,8.1-8.1s-3.6-8.1-8.1-8.1-8.1,3.6-8.1,8.1,3.6,8.1,8.1,8.1"/>
        <path class="cls-7" d="m873.2,556.9c4.5,0,8.1-3.6,8.1-8.1s-3.6-8.1-8.1-8.1-8.1,3.6-8.1,8.1,3.6,8.1,8.1,8.1"/>
        <path class="cls-7" d="m873.2,584c4.5,0,8.1-3.6,8.1-8.1s-3.6-8.1-8.1-8.1-8.1,3.6-8.1,8.1,3.6,8.1,8.1,8.1"/>
        <path class="cls-7" d="m873.2,611c4.5,0,8.1-3.6,8.1-8.1s-3.6-8.1-8.1-8.1-8.1,3.6-8.1,8.1,3.6,8.1,8.1,8.1"/>
        <path class="cls-7" d="m873.2,638c4.5,0,8.1-3.6,8.1-8.1s-3.6-8.1-8.1-8.1-8.1,3.6-8.1,8.1,3.6,8.1,8.1,8.1"/>
        <path class="cls-7" d="m873.2,665.1c4.5,0,8.1-3.6,8.1-8.1s-3.6-8.1-8.1-8.1-8.1,3.6-8.1,8.1,3.6,8.1,8.1,8.1"/>
        <path class="cls-7" d="m873.2,692.1c4.5,0,8.1-3.6,8.1-8.1s-3.6-8.1-8.1-8.1-8.1,3.6-8.1,8.1,3.6,8.1,8.1,8.1"/>
        <path class="cls-7" d="m873.2,719.1c4.5,0,8.1-3.6,8.1-8.1s-3.6-8.1-8.1-8.1-8.1,3.6-8.1,8.1,3.6,8.1,8.1,8.1"/>
        <path class="cls-7" d="m900.2,475.8c4.5,0,8.1-3.6,8.1-8.1s-3.6-8.1-8.1-8.1-8.1,3.6-8.1,8.1,3.7,8.1,8.1,8.1"/>
        <path class="cls-7" d="m900.2,502.8c4.5,0,8.1-3.6,8.1-8.1s-3.6-8.1-8.1-8.1-8.1,3.6-8.1,8.1,3.7,8.1,8.1,8.1"/>
        <path class="cls-7" d="m900.2,529.9c4.5,0,8.1-3.6,8.1-8.1s-3.6-8.1-8.1-8.1-8.1,3.6-8.1,8.1,3.7,8.1,8.1,8.1"/>
        <path class="cls-7" d="m900.2,556.9c4.5,0,8.1-3.6,8.1-8.1s-3.6-8.1-8.1-8.1-8.1,3.6-8.1,8.1,3.7,8.1,8.1,8.1"/>
        <path class="cls-7" d="m900.2,584c4.5,0,8.1-3.6,8.1-8.1s-3.6-8.1-8.1-8.1-8.1,3.6-8.1,8.1,3.7,8.1,8.1,8.1"/>
        <path class="cls-7" d="m900.2,611c4.5,0,8.1-3.6,8.1-8.1s-3.6-8.1-8.1-8.1-8.1,3.6-8.1,8.1,3.7,8.1,8.1,8.1"/>
        <path class="cls-7" d="m900.2,638c4.5,0,8.1-3.6,8.1-8.1s-3.6-8.1-8.1-8.1-8.1,3.6-8.1,8.1,3.7,8.1,8.1,8.1"/>
        <path class="cls-7" d="m900.2,665.1c4.5,0,8.1-3.6,8.1-8.1s-3.6-8.1-8.1-8.1-8.1,3.6-8.1,8.1,3.7,8.1,8.1,8.1"/>
        <path class="cls-7" d="m927.3,502.8c4.5,0,8.1-3.6,8.1-8.1s-3.6-8.1-8.1-8.1-8.1,3.6-8.1,8.1,3.6,8.1,8.1,8.1"/>
        <path class="cls-7" d="m927.3,529.9c4.5,0,8.1-3.6,8.1-8.1s-3.6-8.1-8.1-8.1-8.1,3.6-8.1,8.1,3.6,8.1,8.1,8.1"/>
        <path class="cls-7" d="m927.3,556.9c4.5,0,8.1-3.6,8.1-8.1s-3.6-8.1-8.1-8.1-8.1,3.6-8.1,8.1,3.6,8.1,8.1,8.1"/>
        <path class="cls-7" d="m927.3,584c4.5,0,8.1-3.6,8.1-8.1s-3.6-8.1-8.1-8.1-8.1,3.6-8.1,8.1,3.6,8.1,8.1,8.1"/>
        <path class="cls-7" d="m954.3,502.8c4.5,0,8.1-3.6,8.1-8.1s-3.6-8.1-8.1-8.1-8.1,3.6-8.1,8.1,3.6,8.1,8.1,8.1"/>
        <path class="cls-7" d="m954.3,529.9c4.5,0,8.1-3.6,8.1-8.1s-3.6-8.1-8.1-8.1-8.1,3.6-8.1,8.1,3.6,8.1,8.1,8.1"/>
        <path class="cls-7" d="m954.3,556.9c4.5,0,8.1-3.6,8.1-8.1s-3.6-8.1-8.1-8.1-8.1,3.6-8.1,8.1,3.6,8.1,8.1,8.1"/>
        <path class="cls-7" d="m658.2,281.5c4.5,0,8.1-3.6,8.1-8.1s-3.6-8.1-8.1-8.1-8.1,3.6-8.1,8.1,3.6,8.1,8.1,8.1"/>
        <path class="cls-7" d="m461.1,168.9c4.5,0,8.1-3.6,8.1-8.1s-3.6-8.1-8.1-8.1-8.1,3.6-8.1,8.1,3.7,8.1,8.1,8.1"/>
        <path class="cls-7" d="m467.7,1070.6c4.5,0,8.1-3.6,8.1-8.1s-3.6-8.1-8.1-8.1-8.1,3.6-8.1,8.1,3.6,8.1,8.1,8.1"/>
        <path class="cls-7" d="m359.6,232.5c4.5,0,8.1-3.6,8.1-8.1s-3.6-8.1-8.1-8.1-8.1,3.6-8.1,8.1,3.6,8.1,8.1,8.1"/>
      </g>
      <g>
        <path class="cls-11" d="m116.3,124.4c4.5,0,8.1-3.6,8.1-8.1s-3.6-8.1-8.1-8.1-8.1,3.6-8.1,8.1,3.6,8.1,8.1,8.1"/>
        <path class="cls-2" d="m197.3,232.5c4.5,0,8.1-3.6,8.1-8.1s-3.6-8.1-8.1-8.1-8.1,3.6-8.1,8.1,3.7,8.1,8.1,8.1"/>
        <path class="cls-3" d="m408.3,141.9c4.5,0,8.1-3.6,8.1-8.1s-3.6-8.1-8.1-8.1-8.1,3.6-8.1,8.1,3.6,8.1,8.1,8.1"/>
        <path class="cls-4" d="m521.8,205.5c4.5,0,8.1-3.6,8.1-8.1s-3.6-8.1-8.1-8.1-8.1,3.6-8.1,8.1,3.6,8.1,8.1,8.1"/>
        <path class="cls-9" d="m278.4,259.5c4.5,0,8.1-3.6,8.1-8.1s-3.6-8.1-8.1-8.1-8.1,3.6-8.1,8.1,3.7,8.1,8.1,8.1"/>
        <path class="cls-5" d="m494.7,908.4c4.5,0,8.1-3.6,8.1-8.1s-3.6-8.1-8.1-8.1-8.1,3.6-8.1,8.1,3.6,8.1,8.1,8.1"/>
        <path class="cls-8" d="m656.9,746.2c4.5,0,8.1-3.6,8.1-8.1s-3.6-8.1-8.1-8.1-8.1,3.6-8.1,8.1,3.6,8.1,8.1,8.1"/>
        <path class="cls-6" d="m656.9,908.4c4.5,0,8.1-3.6,8.1-8.1s-3.6-8.1-8.1-8.1-8.1,3.6-8.1,8.1,3.6,8.1,8.1,8.1"/>
        <path class="cls-1" d="m711,854.3c4.5,0,8.1-3.6,8.1-8.1s-3.6-8.1-8.1-8.1-8.1,3.6-8.1,8.1,3.6,8.1,8.1,8.1"/>
        <path class="cls-12" d="m819.1,638c4.5,0,8.1-3.6,8.1-8.1s-3.6-8.1-8.1-8.1-8.1,3.6-8.1,8.1c0,4.5,3.7,8.1,8.1,8.1"/>
        <path class="cls-10" d="m359.6,232.5c4.5,0,8.1-3.6,8.1-8.1s-3.6-8.1-8.1-8.1-8.1,3.6-8.1,8.1,3.6,8.1,8.1,8.1"/>
      </g>
    </g>
  </g>
</svg>